<?xml version="1.0" encoding="utf-8"?>
<!DOCTYPE svg PUBLIC "-//W3C//DTD SVG 1.0//EN" "http://www.w3.org/TR/2001/REC-SVG-20010904/DTD/svg10.dtd">
<svg version="1.0" xmlns="http://www.w3.org/2000/svg" width="840px" height="997px" viewBox="0 0 840 997" preserveAspectRatio="xMidYMid meet">
 <g fill="#000000">
  <path d="M50 989 l0 -8 -5 0 -5 0 0 -7.5 0 -7.5 -5 0 -5 0 0 -7.5 0 -7.5 -5 0 -5 0 0 -8 0 -8 -5 0 -5 0 0 -7.5 0 -7.5 -5 0 -5 0 0 -283.5 0 -283.5 10 0 10 0 0 276 0 276 5 0 5 0 0 7.5 0 7.5 5 0 5 0 0 7.5 0 7.5 5 0 5 0 0 8 0 8 5 0 5 0 0 7.5 0 7.5 360 0 360 0 0 -7.5 0 -7.5 5 0 5 0 0 -8 0 -8 5 0 5 0 0 -7.5 0 -7.5 5 0 5 0 0 -7.5 0 -7.5 5 0 5 0 0 -360.5 0 -360.5 -5 0 -5 0 0 -7.5 0 -7.5 -180 0 -180 0 0 -11.5 0 -11.5 -5 0 -5 0 0 -11.5 0 -11.5 -5 0 -5 0 0 -11.5 0 -11.5 -5 0 -5 0 0 -11.5 0 -11.5 -5 0 -5 0 0 -8 0 -8 -80 0 -80 0 0 -15 0 -15 270 0 270 0 0 7.5 0 7.5 5 0 5 0 0 7.5 0 7.5 5 0 5 0 0 8 0 8 5 0 5 0 0 7.5 0 7.5 5 0 5 0 0 7.5 0 7.5 5 0 5 0 0 406.5 0 406.5 -5 0 -5 0 0 7.5 0 7.5 -5 0 -5 0 0 8 0 8 -5 0 -5 0 0 7.5 0 7.5 -5 0 -5 0 0 7.5 0 7.5 -5 0 -5 0 0 8 0 8 -370 0 -370 0 0 -8z m460 -843.5 l0 -7.5 5 0 5 0 0 -38.5 0 -38.5 -5 0 -5 0 0 -7.5 0 -7.5 -15 0 -15 0 0 7.5 0 7.5 -5 0 -5 0 0 15.5 0 15.5 5 0 5 0 0 7.5 0 7.5 15 0 15 0 0 15.5 0 15.5 -15 0 -15 0 0 7.5 0 7.5 15 0 15 0 0 -7.5z m30 0 l0 -7.5 -5 0 -5 0 0 7.5 0 7.5 5 0 5 0 0 -7.5z m50 0 l0 -7.5 5 0 5 0 0 -38.5 0 -38.5 -5 0 -5 0 0 -7.5 0 -7.5 -15 0 -15 0 0 7.5 0 7.5 -5 0 -5 0 0 38.5 0 38.5 5 0 5 0 0 7.5 0 7.5 15 0 15 0 0 -7.5z m70 0 l0 -7.5 -10 0 -10 0 0 -46 0 -46 -5 0 -5 0 0 7.5 0 7.5 -5 0 -5 0 0 8 0 8 -5 0 -5 0 0 7.5 0 7.5 5 0 5 0 0 -7.5 0 -7.5 5 0 5 0 0 30.5 0 30.5 -10 0 -10 0 0 7.5 0 7.5 25 0 25 0 0 -7.5z m60 0 l0 -7.5 -15 0 -15 0 0 -7.5 0 -7.5 5 0 5 0 0 -8 0 -8 5 0 5 0 0 -7.5 0 -7.5 5 0 5 0 0 -15.5 0 -15.5 -5 0 -5 0 0 -7.5 0 -7.5 -15 0 -15 0 0 7.5 0 7.5 -5 0 -5 0 0 8 0 8 5 0 5 0 0 -8 0 -8 15 0 15 0 0 15.5 0 15.5 -5 0 -5 0 0 7.5 0 7.5 -5 0 -5 0 0 8 0 8 -5 0 -5 0 0 7.5 0 7.5 -5 0 -5 0 0 7.5 0 7.5 25 0 25 0 0 -7.5z m60 0 l0 -7.5 -15 0 -15 0 0 -7.5 0 -7.5 5 0 5 0 0 -8 0 -8 5 0 5 0 0 -7.5 0 -7.5 5 0 5 0 0 -15.5 0 -15.5 -5 0 -5 0 0 -7.5 0 -7.5 -15 0 -15 0 0 7.5 0 7.5 -5 0 -5 0 0 8 0 8 5 0 5 0 0 -8 0 -8 15 0 15 0 0 15.5 0 15.5 -5 0 -5 0 0 7.5 0 7.5 -5 0 -5 0 0 8 0 8 -5 0 -5 0 0 7.5 0 7.5 -5 0 -5 0 0 7.5 0 7.5 25 0 25 0 0 -7.5z"/>
  <path d="M480 76.5 l0 -15.5 15 0 15 0 0 15.5 0 15.5 -15 0 -15 0 0 -15.5z"/>
  <path d="M560 130.5 l0 -7.5 5 0 5 0 0 -8 0 -8 -5 0 -5 0 0 -23 0 -23 15 0 15 0 0 8 0 8 -5 0 -5 0 0 7.5 0 7.5 5 0 5 0 0 23 0 23 -15 0 -15 0 0 -7.5z m20 -31 l0 -7.5 -5 0 -5 0 0 7.5 0 7.5 5 0 5 0 0 -7.5z"/>
  <path d="M380 897 l0 -38 -5 0 -5 0 0 -8 0 -8 -5 0 -5 0 0 23 0 23 -90 0 -90 0 0 -69 0 -69 -35 0 -35 0 0 -7.5 0 -7.5 5 0 5 0 0 -7.5 0 -7.5 5 0 5 0 0 -8 0 -8 5 0 5 0 0 -7.5 0 -7.5 5 0 5 0 0 -7.5 0 -7.5 5 0 5 0 0 -84.5 0 -84.5 -5 0 -5 0 0 -7.5 0 -7.5 -5 0 -5 0 0 -8 0 -8 -5 0 -5 0 0 -7.5 0 -7.5 -5 0 -5 0 0 -7.5 0 -7.5 -5 0 -5 0 0 -8 0 -8 -5 0 -5 0 0 -7.5 0 -7.5 -5 0 -5 0 0 -7.5 0 -7.5 -5 0 -5 0 0 -8 0 -8 -5 0 -5 0 0 -7.5 0 -7.5 45 0 45 0 0 -15.5 0 -15.5 -70 0 -70 0 0 -15 0 -15 5 0 5 0 0 -8 0 -8 5 0 5 0 0 -7.5 0 -7.5 5 0 5 0 0 -7.5 0 -7.5 5 0 5 0 0 -8 0 -8 5 0 5 0 0 -7.5 0 -7.5 5 0 5 0 0 -7.5 0 -7.5 5 0 5 0 0 -8 0 -8 5 0 5 0 0 -7.5 0 -7.5 5 0 5 0 0 -7.5 0 -7.5 5 0 5 0 0 -8 0 -8 5 0 5 0 0 -7.5 0 -7.5 5 0 5 0 0 -7.5 0 -7.5 5 0 5 0 0 -8 0 -8 5 0 5 0 0 -7.5 0 -7.5 5 0 5 0 0 -7.5 0 -7.5 5 0 5 0 0 -8 0 -8 5 0 5 0 0 -7.5 0 -7.5 5 0 5 0 0 -7.5 0 -7.5 5 0 5 0 0 -8 0 -8 5 0 5 0 0 -7.5 0 -7.5 10 0 10 0 0 115 0 115 45 0 45 0 0 7.5 0 7.5 -5 0 -5 0 0 8 0 8 -5 0 -5 0 0 7.5 0 7.5 -5 0 -5 0 0 7.5 0 7.5 -5 0 -5 0 0 8 0 8 -5 0 -5 0 0 7.5 0 7.5 -5 0 -5 0 0 7.5 0 7.5 -15 0 -15 0 0 8 0 8 -5 0 -5 0 0 7.5 0 7.5 80 0 80 0 0 7.5 0 7.5 5 0 5 0 0 8 0 8 5 0 5 0 0 7.5 0 7.5 5 0 5 0 0 7.5 0 7.5 5 0 5 0 0 8 0 8 5 0 5 0 0 46 0 46 5 0 5 0 0 -8 0 -8 5 0 5 0 0 -7.5 0 -7.5 5 0 5 0 0 -7.5 0 -7.5 5 0 5 0 0 -8 0 -8 5 0 5 0 0 -7.5 0 -7.5 90 0 90 0 0 7.5 0 7.5 5 0 5 0 0 8 0 8 5 0 5 0 0 7.5 0 7.5 5 0 5 0 0 7.5 0 7.5 5 0 5 0 0 8 0 8 5 0 5 0 0 69 0 69 -5 0 -5 0 0 7.5 0 7.5 -5 0 -5 0 0 7.5 0 7.5 -5 0 -5 0 0 8 0 8 -5 0 -5 0 0 7.5 0 7.5 -5 0 -5 0 0 7.5 0 7.5 -5 0 -5 0 0 69 0 69 -100 0 -100 0 0 8 0 8 -10 0 -10 0 0 15 0 15 -30 0 -30 0 0 -38z m40 0 l0 -8 5 0 5 0 0 -7.5 0 -7.5 5 0 5 0 0 -46 0 -46 -5 0 -5 0 0 30.5 0 30.5 -15 0 -15 0 0 -30.5 0 -30.5 -5 0 -5 0 0 30.5 0 30.5 5 0 5 0 0 8 0 8 15 0 15 0 0 7.5 0 7.5 -5 0 -5 0 0 7.5 0 7.5 -10 0 -10 0 0 8 0 8 10 0 10 0 0 -8z m-170 -46 l0 -8 5 0 5 0 0 -15 0 -15 -5 0 -5 0 0 -8 0 -8 5 0 5 0 0 -15 0 -15 -5 0 -5 0 0 -8 0 -8 -25 0 -25 0 0 54 0 54 25 0 25 0 0 -8z m60 0 l0 -8 -15 0 -15 0 0 -7.5 0 -7.5 20 0 20 0 0 -15.5 0 -15.5 -5 0 -5 0 0 -7.5 0 -7.5 -15 0 -15 0 0 7.5 0 7.5 -5 0 -5 0 0 23 0 23 5 0 5 0 0 8 0 8 15 0 15 0 0 -8z m30 -15 l0 -23 5 0 5 0 0 -8 0 -8 15 0 15 0 0 -7.5 0 -7.5 -15 0 -15 0 0 7.5 0 7.5 -5 0 -5 0 0 -7.5 0 -7.5 -5 0 -5 0 0 38.5 0 38.5 5 0 5 0 0 -23z m120 -31 l0 -54 -5 0 -5 0 0 54 0 54 5 0 5 0 0 -54z m20 0 l0 -54 -5 0 -5 0 0 54 0 54 5 0 5 0 0 -54z m20 15.5 l0 -38.5 -5 0 -5 0 0 38.5 0 38.5 5 0 5 0 0 -38.5z m50 30.5 l0 -8 5 0 5 0 0 -30.5 0 -30.5 -5 0 -5 0 0 30.5 0 30.5 -15 0 -15 0 0 -30.5 0 -30.5 -5 0 -5 0 0 30.5 0 30.5 5 0 5 0 0 8 0 8 15 0 15 0 0 -8z m30 -23 l0 -31 10 0 10 0 0 31 0 31 5 0 5 0 0 -31 0 -31 10 0 10 0 0 31 0 31 5 0 5 0 0 -31 0 -31 -5 0 -5 0 0 -7.5 0 -7.5 -30 0 -30 0 0 38.5 0 38.5 5 0 5 0 0 -31z m-80 -69 l0 -8 -5 0 -5 0 0 8 0 8 5 0 5 0 0 -8z m-70 -23 l0 -15 20 0 20 0 0 -8 0 -8 -5 0 -5 0 0 -7.5 0 -7.5 -5 0 -5 0 0 -7.5 0 -7.5 -10 0 -10 0 0 7.5 0 7.5 -5 0 -5 0 0 7.5 0 7.5 -5 0 -5 0 0 8 0 8 -5 0 -5 0 0 7.5 0 7.5 -5 0 -5 0 0 7.5 0 7.5 20 0 20 0 0 -15z m-50 -23 l0 -8 5 0 5 0 0 -7.5 0 -7.5 5 0 5 0 0 -7.5 0 -7.5 5 0 5 0 0 -8 0 -8 5 0 5 0 0 -30.5 0 -30.5 -5 0 -5 0 0 -7.5 0 -7.5 -5 0 -5 0 0 -23 0 -23 5 0 5 0 0 -8 0 -8 5 0 5 0 0 -30.5 0 -30.5 -5 0 -5 0 0 -7.5 0 -7.5 -5 0 -5 0 0 -8 0 -8 -5 0 -5 0 0 -7.5 0 -7.5 -5 0 -5 0 0 -7.5 0 -7.5 -130 0 -130 0 0 7.5 0 7.5 5 0 5 0 0 7.5 0 7.5 5 0 5 0 0 8 0 8 5 0 5 0 0 7.5 0 7.5 5 0 5 0 0 7.5 0 7.5 5 0 5 0 0 8 0 8 5 0 5 0 0 99.5 0 99.5 -5 0 -5 0 0 7.5 0 7.5 -5 0 -5 0 0 8 0 8 110 0 110 0 0 -8z m280 0 l0 -8 5 0 5 0 0 -7.5 0 -7.5 5 0 5 0 0 -7.5 0 -7.5 -70 0 -70 0 0 -8 0 -8 -5 0 -5 0 0 -7.5 0 -7.5 -5 0 -5 0 0 -7.5 0 -7.5 90 0 90 0 0 -38.5 0 -38.5 -5 0 -5 0 0 -7.5 0 -7.5 -5 0 -5 0 0 -8 0 -8 -5 0 -5 0 0 -7.5 0 -7.5 -5 0 -5 0 0 -7.5 0 -7.5 -80 0 -80 0 0 7.5 0 7.5 -5 0 -5 0 0 7.5 0 7.5 -5 0 -5 0 0 8 0 8 -5 0 -5 0 0 7.5 0 7.5 -5 0 -5 0 0 53.5 0 53.5 5 0 5 0 0 8 0 8 5 0 5 0 0 7.5 0 7.5 5 0 5 0 0 7.5 0 7.5 5 0 5 0 0 8 0 8 80 0 80 0 0 -8z m-220 -153 l0 -23 -5 0 -5 0 0 7.5 0 7.5 -5 0 -5 0 0 7.5 0 7.5 5 0 5 0 0 8 0 8 5 0 5 0 0 -23z m-250 -184.5 l0 -7.5 5 0 5 0 0 -7.5 0 -7.5 5 0 5 0 0 -8 0 -8 5 0 5 0 0 -15 0 -15 20 0 20 0 0 -8 0 -8 5 0 5 0 0 -7.5 0 -7.5 5 0 5 0 0 -7.5 0 -7.5 -30 0 -30 0 0 -100 0 -100 -5 0 -5 0 0 8 0 8 -5 0 -5 0 0 7.5 0 7.5 -5 0 -5 0 0 7.5 0 7.5 -5 0 -5 0 0 8 0 8 -5 0 -5 0 0 7.5 0 7.5 -5 0 -5 0 0 7.5 0 7.5 -5 0 -5 0 0 8 0 8 -5 0 -5 0 0 7.5 0 7.5 -5 0 -5 0 0 7.5 0 7.5 -5 0 -5 0 0 8 0 8 -5 0 -5 0 0 7.5 0 7.5 -5 0 -5 0 0 7.5 0 7.5 -5 0 -5 0 0 8 0 8 -5 0 -5 0 0 7.5 0 7.5 -5 0 -5 0 0 7.5 0 7.5 -5 0 -5 0 0 8 0 8 60 0 60 0 0 38 0 38 5 0 5 0 0 -7.5z"/>
  <path d="M210 828 l0 -15 20 0 20 0 0 15 0 15 -20 0 -20 0 0 -15z"/>
  <path d="M210 782 l0 -15 20 0 20 0 0 15 0 15 -20 0 -20 0 0 -15z"/>
  <path d="M280 805 l0 -8 15 0 15 0 0 8 0 8 -15 0 -15 0 0 -8z"/>
  <path d="M240 629 l0 -46 50 0 50 0 0 7.5 0 7.5 5 0 5 0 0 7.5 0 7.5 5 0 5 0 0 15.5 0 15.5 -5 0 -5 0 0 7.5 0 7.5 -5 0 -5 0 0 8 0 8 -50 0 -50 0 0 -46z"/>
  <path d="M240 491 l0 -46 50 0 50 0 0 7.5 0 7.5 5 0 5 0 0 7.5 0 7.5 5 0 5 0 0 15.5 0 15.5 -5 0 -5 0 0 7.5 0 7.5 -5 0 -5 0 0 8 0 8 -50 0 -50 0 0 -46z"/>
  <path d="M520 575 l0 -8 5 0 5 0 0 -7.5 0 -7.5 5 0 5 0 0 -7.5 0 -7.5 40 0 40 0 0 7.5 0 7.5 5 0 5 0 0 7.5 0 7.5 5 0 5 0 0 8 0 8 -60 0 -60 0 0 -8z"/>
  <path d="M140 253 l0 -8 5 0 5 0 0 -7.5 0 -7.5 5 0 5 0 0 -7.5 0 -7.5 5 0 5 0 0 -8 0 -8 5 0 5 0 0 31 0 31 -20 0 -20 0 0 -8z"/>
  <path d="M0 207 l0 -100 5 0 5 0 0 -7.5 0 -7.5 5 0 5 0 0 -7.5 0 -7.5 5 0 5 0 0 -8 0 -8 5 0 5 0 0 -7.5 0 -7.5 5 0 5 0 0 -7.5 0 -7.5 65 0 65 0 0 7.5 0 7.5 -5 0 -5 0 0 7.5 0 7.5 -55 0 -55 0 0 8 0 8 -5 0 -5 0 0 7.5 0 7.5 -5 0 -5 0 0 7.5 0 7.5 -5 0 -5 0 0 8 0 8 -5 0 -5 0 0 84 0 84 -5 0 -5 0 0 8 0 8 -5 0 -5 0 0 -100z"/>
 </g>
</svg>
