<?xml version="1.0" encoding="utf-8"?>
<!DOCTYPE svg PUBLIC "-//W3C//DTD SVG 1.0//EN" "http://www.w3.org/TR/2001/REC-SVG-20010904/DTD/svg10.dtd">
<svg version="1.0" xmlns="http://www.w3.org/2000/svg" width="840px" height="997px" viewBox="0 0 840 997" preserveAspectRatio="xMidYMid meet">
 <g fill="#000000">
  <path d="M50 989 l0 -8 -5 0 -5 0 0 -7.5 0 -7.5 -5 0 -5 0 0 -7.5 0 -7.5 -5 0 -5 0 0 -8 0 -8 -5 0 -5 0 0 -7.5 0 -7.5 -5 0 -5 0 0 -283.5 0 -283.5 10 0 10 0 0 276 0 276 5 0 5 0 0 7.5 0 7.5 5 0 5 0 0 7.5 0 7.5 5 0 5 0 0 8 0 8 5 0 5 0 0 7.5 0 7.5 360 0 360 0 0 -7.5 0 -7.5 5 0 5 0 0 -8 0 -8 5 0 5 0 0 -7.5 0 -7.5 5 0 5 0 0 -7.5 0 -7.5 5 0 5 0 0 -360.5 0 -360.5 -5 0 -5 0 0 -7.5 0 -7.5 -180 0 -180 0 0 -11.5 0 -11.5 -5 0 -5 0 0 -11.5 0 -11.5 -5 0 -5 0 0 -11.5 0 -11.5 -5 0 -5 0 0 -11.5 0 -11.5 -5 0 -5 0 0 -8 0 -8 -80 0 -80 0 0 -15 0 -15 270 0 270 0 0 7.5 0 7.5 5 0 5 0 0 7.5 0 7.5 5 0 5 0 0 8 0 8 5 0 5 0 0 7.5 0 7.5 5 0 5 0 0 7.5 0 7.5 5 0 5 0 0 406.5 0 406.5 -5 0 -5 0 0 7.5 0 7.5 -5 0 -5 0 0 8 0 8 -5 0 -5 0 0 7.5 0 7.5 -5 0 -5 0 0 7.5 0 7.5 -5 0 -5 0 0 8 0 8 -370 0 -370 0 0 -8z m460 -843.5 l0 -7.5 5 0 5 0 0 -38.5 0 -38.5 -5 0 -5 0 0 -7.5 0 -7.5 -15 0 -15 0 0 7.5 0 7.5 -5 0 -5 0 0 15.5 0 15.5 5 0 5 0 0 7.5 0 7.5 15 0 15 0 0 15.5 0 15.5 -15 0 -15 0 0 7.5 0 7.5 15 0 15 0 0 -7.5z m30 0 l0 -7.5 -5 0 -5 0 0 7.5 0 7.5 5 0 5 0 0 -7.5z m50 0 l0 -7.5 5 0 5 0 0 -38.5 0 -38.5 -5 0 -5 0 0 -7.5 0 -7.5 -15 0 -15 0 0 7.5 0 7.5 -5 0 -5 0 0 38.5 0 38.5 5 0 5 0 0 7.5 0 7.5 15 0 15 0 0 -7.5z m70 0 l0 -7.5 -10 0 -10 0 0 -46 0 -46 -5 0 -5 0 0 7.5 0 7.5 -5 0 -5 0 0 8 0 8 -5 0 -5 0 0 7.5 0 7.5 5 0 5 0 0 -7.5 0 -7.5 5 0 5 0 0 30.5 0 30.5 -10 0 -10 0 0 7.5 0 7.5 25 0 25 0 0 -7.5z m60 0 l0 -7.5 -15 0 -15 0 0 -7.5 0 -7.5 5 0 5 0 0 -8 0 -8 5 0 5 0 0 -7.5 0 -7.5 5 0 5 0 0 -15.5 0 -15.5 -5 0 -5 0 0 -7.5 0 -7.5 -15 0 -15 0 0 7.5 0 7.5 -5 0 -5 0 0 8 0 8 5 0 5 0 0 -8 0 -8 15 0 15 0 0 15.5 0 15.5 -5 0 -5 0 0 7.5 0 7.5 -5 0 -5 0 0 8 0 8 -5 0 -5 0 0 7.5 0 7.5 -5 0 -5 0 0 7.5 0 7.5 25 0 25 0 0 -7.5z m60 0 l0 -7.5 -15 0 -15 0 0 -7.5 0 -7.5 5 0 5 0 0 -8 0 -8 5 0 5 0 0 -7.5 0 -7.5 5 0 5 0 0 -15.5 0 -15.5 -5 0 -5 0 0 -7.5 0 -7.5 -15 0 -15 0 0 7.5 0 7.5 -5 0 -5 0 0 8 0 8 5 0 5 0 0 -8 0 -8 15 0 15 0 0 15.5 0 15.5 -5 0 -5 0 0 7.5 0 7.5 -5 0 -5 0 0 8 0 8 -5 0 -5 0 0 7.5 0 7.5 -5 0 -5 0 0 7.5 0 7.5 25 0 25 0 0 -7.5z"/>
  <path d="M480 76.5 l0 -15.5 15 0 15 0 0 15.5 0 15.5 -15 0 -15 0 0 -15.5z"/>
  <path d="M560 130.5 l0 -7.5 5 0 5 0 0 -8 0 -8 -5 0 -5 0 0 -23 0 -23 15 0 15 0 0 8 0 8 -5 0 -5 0 0 7.5 0 7.5 5 0 5 0 0 23 0 23 -15 0 -15 0 0 -7.5z m20 -31 l0 -7.5 -5 0 -5 0 0 7.5 0 7.5 5 0 5 0 0 -7.5z"/>
  <path d="M72 944.1 l0 -5.1 3.1 0 3 0 -0.3 4.8 -0.3 4.7 -2.7 0.3 -2.8 0.3 0 -5z"/>
  <path d="M82 944.1 l0 -5.1 3.1 0 3 0 -0.3 4.8 -0.3 4.7 -2.7 0.3 -2.8 0.3 0 -5z"/>
  <path d="M92 944.1 l0 -5.1 3.1 0 3 0 -0.3 4.8 -0.3 4.7 -2.7 0.3 -2.8 0.3 0 -5z"/>
  <path d="M102 944.1 l0 -5.1 3.1 0 3 0 -0.3 4.8 -0.3 4.7 -2.7 0.3 -2.8 0.3 0 -5z"/>
  <path d="M112 944.1 l0 -5.1 3.1 0 3 0 -0.3 4.8 -0.3 4.7 -2.7 0.3 -2.8 0.3 0 -5z"/>
  <path d="M122 944.1 l0 -5.1 3.1 0 3 0 -0.3 4.8 -0.3 4.7 -2.7 0.3 -2.8 0.3 0 -5z"/>
  <path d="M132 944.1 l0 -5.1 3.1 0 3 0 -0.3 4.8 -0.3 4.7 -2.7 0.3 -2.8 0.3 0 -5z"/>
  <path d="M142 944.1 l0 -5.1 3.1 0 3 0 -0.3 4.8 -0.3 4.7 -2.7 0.3 -2.8 0.3 0 -5z"/>
  <path d="M152 944.1 l0 -5.1 3.1 0 3 0 -0.3 4.8 -0.3 4.7 -2.7 0.3 -2.8 0.3 0 -5z"/>
  <path d="M162 944.1 l0 -5.1 3.1 0 3 0 -0.3 4.8 -0.3 4.7 -2.7 0.3 -2.8 0.3 0 -5z"/>
  <path d="M172 944.1 l0 -5.1 3.1 0 3 0 -0.3 4.8 -0.3 4.7 -2.7 0.3 -2.8 0.3 0 -5z"/>
  <path d="M182 944.1 l0 -5.1 3.1 0 3 0 -0.3 4.8 -0.3 4.7 -2.7 0.3 -2.8 0.3 0 -5z"/>
  <path d="M192 944.1 l0 -5.1 3.1 0 3 0 -0.3 4.8 -0.3 4.7 -2.7 0.3 -2.8 0.3 0 -5z"/>
  <path d="M202 944 l0 -5 3 0 3 0 0 5 0 5 -3 0 -3 0 0 -5z"/>
  <path d="M212 944.1 l0 -5.1 3.1 0 3 0 -0.3 4.8 -0.3 4.7 -2.7 0.3 -2.8 0.3 0 -5z"/>
  <path d="M222 944 l0 -5 3 0 3 0 0 5 0 5 -3 0 -3 0 0 -5z"/>
  <path d="M232 944.1 l0 -5.1 3.1 0 3 0 -0.3 4.8 -0.3 4.7 -2.7 0.3 -2.8 0.3 0 -5z"/>
  <path d="M242 944 l0 -5 3 0 3 0 0 5 0 5 -3 0 -3 0 0 -5z"/>
  <path d="M252 944.1 l0 -5.1 3.1 0 3 0 -0.3 4.8 -0.3 4.7 -2.7 0.3 -2.8 0.3 0 -5z"/>
  <path d="M262 944 l0 -5 3 0 3 0 0 5 0 5 -3 0 -3 0 0 -5z"/>
  <path d="M272 944.1 l0 -5.1 3.1 0 3 0 -0.3 4.8 -0.3 4.7 -2.7 0.3 -2.8 0.3 0 -5z"/>
  <path d="M282 944.1 l0 -5.1 3.1 0 3 0 -0.3 4.8 -0.3 4.7 -2.7 0.3 -2.8 0.3 0 -5z"/>
  <path d="M292 944.1 l0 -5.1 3.1 0 3 0 -0.3 4.8 -0.3 4.7 -2.7 0.3 -2.8 0.3 0 -5z"/>
  <path d="M302 944.1 l0 -5.1 3.1 0 3 0 -0.3 4.8 -0.3 4.7 -2.7 0.3 -2.8 0.3 0 -5z"/>
  <path d="M312 944.1 l0 -5.1 3.1 0 3 0 -0.3 4.8 -0.3 4.7 -2.7 0.3 -2.8 0.3 0 -5z"/>
  <path d="M322 944 l0 -5 3 0 3 0 0 5 0 5 -3 0 -3 0 0 -5z"/>
  <path d="M332 944.1 l0 -5.1 3.1 0 3 0 -0.3 4.8 -0.3 4.7 -2.7 0.3 -2.8 0.3 0 -5z"/>
  <path d="M342 944 l0 -5 3 0 3 0 0 5 0 5 -3 0 -3 0 0 -5z"/>
  <path d="M352 944.1 l0 -5.1 3.1 0 3 0 -0.3 4.8 -0.3 4.7 -2.7 0.3 -2.8 0.3 0 -5z"/>
  <path d="M362 944 l0 -5 3 0 3 0 0 5 0 5 -3 0 -3 0 0 -5z"/>
  <path d="M452 944.1 l0 -5.1 3.1 0 3 0 -0.3 4.8 -0.3 4.7 -2.7 0.3 -2.8 0.3 0 -5z"/>
  <path d="M462 944.1 l0 -5.1 3.1 0 3 0 -0.3 4.8 -0.3 4.7 -2.7 0.3 -2.8 0.3 0 -5z"/>
  <path d="M472 944.1 l0 -5.1 3.1 0 3 0 -0.3 4.8 -0.3 4.7 -2.7 0.3 -2.8 0.3 0 -5z"/>
  <path d="M482 944.1 l0 -5.1 3.1 0 3 0 -0.3 4.8 -0.3 4.7 -2.7 0.3 -2.8 0.3 0 -5z"/>
  <path d="M492 944.1 l0 -5.1 3.1 0 3 0 -0.3 4.8 -0.3 4.7 -2.7 0.3 -2.8 0.3 0 -5z"/>
  <path d="M502 944.1 l0 -5.1 3.1 0 3 0 -0.3 4.8 -0.3 4.7 -2.7 0.3 -2.8 0.3 0 -5z"/>
  <path d="M512 944.1 l0 -5.1 3.1 0 3 0 -0.3 4.8 -0.3 4.7 -2.7 0.3 -2.8 0.3 0 -5z"/>
  <path d="M522 944.1 l0 -5.1 3.1 0 3 0 -0.3 4.8 -0.3 4.7 -2.7 0.3 -2.8 0.3 0 -5z"/>
  <path d="M532 944.1 l0 -5.1 3.1 0 3 0 -0.3 4.8 -0.3 4.7 -2.7 0.3 -2.8 0.3 0 -5z"/>
  <path d="M542 944 l0 -5 3 0 3 0 0 5 0 5 -3 0 -3 0 0 -5z"/>
  <path d="M552 944.1 l0 -5.1 3.1 0 3 0 -0.3 4.8 -0.3 4.7 -2.7 0.3 -2.8 0.3 0 -5z"/>
  <path d="M562 944 l0 -5 3 0 3 0 0 5 0 5 -3 0 -3 0 0 -5z"/>
  <path d="M572 944.1 l0 -5.1 3.1 0 3 0 -0.3 4.8 -0.3 4.7 -2.7 0.3 -2.8 0.3 0 -5z"/>
  <path d="M582 944 l0 -5 3 0 3 0 0 5 0 5 -3 0 -3 0 0 -5z"/>
  <path d="M592 944.1 l0 -5.1 3.1 0 3 0 -0.3 4.8 -0.3 4.7 -2.7 0.3 -2.8 0.3 0 -5z"/>
  <path d="M602 944 l0 -5 3 0 3 0 0 5 0 5 -3 0 -3 0 0 -5z"/>
  <path d="M612 944.1 l0 -5.1 3.1 0 3 0 -0.3 4.8 -0.3 4.7 -2.7 0.3 -2.8 0.3 0 -5z"/>
  <path d="M622 944 l0 -5 3 0 3 0 0 5 0 5 -3 0 -3 0 0 -5z"/>
  <path d="M632 944.1 l0 -5.1 3.1 0 3 0 -0.3 4.8 -0.3 4.7 -2.7 0.3 -2.8 0.3 0 -5z"/>
  <path d="M642 944 l0 -5 3 0 3 0 0 5 0 5 -3 0 -3 0 0 -5z"/>
  <path d="M652 944.1 l0 -5.1 3.1 0 3 0 -0.3 4.8 -0.3 4.7 -2.7 0.3 -2.8 0.3 0 -5z"/>
  <path d="M662 944.1 l0 -5.1 3.1 0 3 0 -0.3 4.8 -0.3 4.7 -2.7 0.3 -2.8 0.3 0 -5z"/>
  <path d="M672 944.1 l0 -5.1 3.1 0 3 0 -0.3 4.8 -0.3 4.7 -2.7 0.3 -2.8 0.3 0 -5z"/>
  <path d="M682 944.1 l0 -5.1 3.1 0 3 0 -0.3 4.8 -0.3 4.7 -2.7 0.3 -2.8 0.3 0 -5z"/>
  <path d="M692 944.1 l0 -5.1 3.1 0 3 0 -0.3 4.8 -0.3 4.7 -2.7 0.3 -2.8 0.3 0 -5z"/>
  <path d="M702 944.1 l0 -5.1 3.1 0 3 0 -0.3 4.8 -0.3 4.7 -2.7 0.3 -2.8 0.3 0 -5z"/>
  <path d="M712 944.1 l0 -5.1 3.1 0 3 0 -0.3 4.8 -0.3 4.7 -2.7 0.3 -2.8 0.3 0 -5z"/>
  <path d="M722 944.1 l0 -5.1 3.1 0 3 0 -0.3 4.8 -0.3 4.7 -2.7 0.3 -2.8 0.3 0 -5z"/>
  <path d="M732 944.1 l0 -5.1 3.1 0 3 0 -0.3 4.8 -0.3 4.7 -2.7 0.3 -2.8 0.3 0 -5z"/>
  <path d="M742 944 l0 -5 3 0 3 0 0 5 0 5 -3 0 -3 0 0 -5z"/>
  <path d="M752 944.1 l0 -5.1 3.1 0 3 0 -0.3 4.8 -0.3 4.7 -2.7 0.3 -2.8 0.3 0 -5z"/>
  <path d="M762 944.1 l0 -5.1 3.1 0 3 0 -0.3 4.8 -0.3 4.7 -2.7 0.3 -2.8 0.3 0 -5z"/>
  <path d="M380 897 l0 -38 -5 0 -5 0 0 -8 0 -8 -5 0 -5 0 0 23 0 23 -90 0 -90 0 0 -69 0 -69 -35 0 -35 0 0 -7.5 0 -7.5 5 0 5 0 0 -7.5 0 -7.5 5 0 5 0 0 -8 0 -8 5 0 5 0 0 -7.5 0 -7.5 5 0 5 0 0 -7.5 0 -7.5 5 0 5 0 0 -84.5 0 -84.5 -5 0 -5 0 0 -7.5 0 -7.5 -5 0 -5 0 0 -8 0 -8 -5 0 -5 0 0 -7.5 0 -7.5 -5 0 -5 0 0 -7.5 0 -7.5 -5 0 -5 0 0 -8 0 -8 -5 0 -5 0 0 -7.5 0 -7.5 -5 0 -5 0 0 -7.5 0 -7.5 -5 0 -5 0 0 -8 0 -8 -5 0 -5 0 0 -7.5 0 -7.5 45 0 45 0 0 -15.5 0 -15.5 -70 0 -70 0 0 -15 0 -15 5 0 5 0 0 -8 0 -8 5 0 5 0 0 -7.5 0 -7.5 5 0 5 0 0 -7.5 0 -7.5 5 0 5 0 0 -8 0 -8 5 0 5 0 0 -7.5 0 -7.5 5 0 5 0 0 -7.5 0 -7.5 5 0 5 0 0 -8 0 -8 5 0 5 0 0 -7.5 0 -7.5 5 0 5 0 0 -7.5 0 -7.5 5 0 5 0 0 -8 0 -8 5 0 5 0 0 -7.5 0 -7.5 5 0 5 0 0 -7.5 0 -7.5 5 0 5 0 0 -8 0 -8 5 0 5 0 0 -7.5 0 -7.5 5 0 5 0 0 -7.5 0 -7.5 5 0 5 0 0 -8 0 -8 5 0 5 0 0 -7.5 0 -7.5 5 0 5 0 0 -7.5 0 -7.5 5 0 5 0 0 -8 0 -8 5 0 5 0 0 -7.5 0 -7.5 10 0 10 0 0 115 0 115 45 0 45 0 0 7.5 0 7.5 -5 0 -5 0 0 8 0 8 -5 0 -5 0 0 7.5 0 7.5 -5 0 -5 0 0 7.5 0 7.5 -5 0 -5 0 0 8 0 8 -5 0 -5 0 0 7.5 0 7.5 -5 0 -5 0 0 7.5 0 7.5 -15 0 -15 0 0 8 0 8 -5 0 -5 0 0 7.5 0 7.5 80 0 80 0 0 7.5 0 7.5 5 0 5 0 0 8 0 8 5 0 5 0 0 7.5 0 7.5 5 0 5 0 0 7.5 0 7.5 5 0 5 0 0 8 0 8 5 0 5 0 0 46 0 46 5 0 5 0 0 -8 0 -8 5 0 5 0 0 -7.5 0 -7.5 5 0 5 0 0 -7.5 0 -7.5 5 0 5 0 0 -8 0 -8 5 0 5 0 0 -7.5 0 -7.5 90 0 90 0 0 7.5 0 7.5 5 0 5 0 0 8 0 8 5 0 5 0 0 7.5 0 7.5 5 0 5 0 0 7.5 0 7.5 5 0 5 0 0 8 0 8 5 0 5 0 0 69 0 69 -5 0 -5 0 0 7.5 0 7.5 -5 0 -5 0 0 7.5 0 7.5 -5 0 -5 0 0 8 0 8 -5 0 -5 0 0 7.5 0 7.5 -5 0 -5 0 0 7.5 0 7.5 -5 0 -5 0 0 69 0 69 -100 0 -100 0 0 8 0 8 -10 0 -10 0 0 15 0 15 -30 0 -30 0 0 -38z m40 0 l0 -8 5 0 5 0 0 -7.5 0 -7.5 5 0 5 0 0 -46 0 -46 -5 0 -5 0 0 30.5 0 30.5 -15 0 -15 0 0 -30.5 0 -30.5 -5 0 -5 0 0 30.5 0 30.5 5 0 5 0 0 8 0 8 15 0 15 0 0 7.5 0 7.5 -5 0 -5 0 0 7.5 0 7.5 -10 0 -10 0 0 8 0 8 10 0 10 0 0 -8z m-170 -46 l0 -8 5 0 5 0 0 -15 0 -15 -5 0 -5 0 0 -8 0 -8 5 0 5 0 0 -15 0 -15 -5 0 -5 0 0 -8 0 -8 -25 0 -25 0 0 54 0 54 25 0 25 0 0 -8z m60 0 l0 -8 -15 0 -15 0 0 -7.5 0 -7.5 20 0 20 0 0 -15.5 0 -15.5 -5 0 -5 0 0 -7.5 0 -7.5 -15 0 -15 0 0 7.5 0 7.5 -5 0 -5 0 0 23 0 23 5 0 5 0 0 8 0 8 15 0 15 0 0 -8z m30 -15 l0 -23 5 0 5 0 0 -8 0 -8 15 0 15 0 0 -7.5 0 -7.5 -15 0 -15 0 0 7.5 0 7.5 -5 0 -5 0 0 -7.5 0 -7.5 -5 0 -5 0 0 38.5 0 38.5 5 0 5 0 0 -23z m120 -31 l0 -54 -5 0 -5 0 0 54 0 54 5 0 5 0 0 -54z m20 0 l0 -54 -5 0 -5 0 0 54 0 54 5 0 5 0 0 -54z m20 15.5 l0 -38.5 -5 0 -5 0 0 38.5 0 38.5 5 0 5 0 0 -38.5z m50 30.5 l0 -8 5 0 5 0 0 -30.5 0 -30.5 -5 0 -5 0 0 30.5 0 30.5 -15 0 -15 0 0 -30.5 0 -30.5 -5 0 -5 0 0 30.5 0 30.5 5 0 5 0 0 8 0 8 15 0 15 0 0 -8z m30 -23 l0 -31 10 0 10 0 0 31 0 31 5 0 5 0 0 -31 0 -31 10 0 10 0 0 31 0 31 5 0 5 0 0 -31 0 -31 -5 0 -5 0 0 -7.5 0 -7.5 -30 0 -30 0 0 38.5 0 38.5 5 0 5 0 0 -31z m-80 -69 l0 -8 -5 0 -5 0 0 8 0 8 5 0 5 0 0 -8z m-70 -23 l0 -15 20 0 20 0 0 -8 0 -8 -5 0 -5 0 0 -7.5 0 -7.5 -5 0 -5 0 0 -7.5 0 -7.5 -10 0 -10 0 0 7.5 0 7.5 -5 0 -5 0 0 7.5 0 7.5 -5 0 -5 0 0 8 0 8 -5 0 -5 0 0 7.5 0 7.5 -5 0 -5 0 0 7.5 0 7.5 20 0 20 0 0 -15z m-50 -23 l0 -8 5 0 5 0 0 -7.5 0 -7.5 5 0 5 0 0 -7.5 0 -7.5 5 0 5 0 0 -8 0 -8 5 0 5 0 0 -30.5 0 -30.5 -5 0 -5 0 0 -7.5 0 -7.5 -5 0 -5 0 0 -23 0 -23 5 0 5 0 0 -8 0 -8 5 0 5 0 0 -30.5 0 -30.5 -5 0 -5 0 0 -7.5 0 -7.5 -5 0 -5 0 0 -8 0 -8 -5 0 -5 0 0 -7.5 0 -7.5 -5 0 -5 0 0 -7.5 0 -7.5 -130 0 -130 0 0 7.5 0 7.5 5 0 5 0 0 7.5 0 7.5 5 0 5 0 0 8 0 8 5 0 5 0 0 7.5 0 7.5 5 0 5 0 0 7.5 0 7.5 5 0 5 0 0 8 0 8 5 0 5 0 0 99.5 0 99.5 -5 0 -5 0 0 7.5 0 7.5 -5 0 -5 0 0 8 0 8 110 0 110 0 0 -8z m280 0 l0 -8 5 0 5 0 0 -7.5 0 -7.5 5 0 5 0 0 -7.5 0 -7.5 -70 0 -70 0 0 -8 0 -8 -5 0 -5 0 0 -7.5 0 -7.5 -5 0 -5 0 0 -7.5 0 -7.5 90 0 90 0 0 -38.5 0 -38.5 -5 0 -5 0 0 -7.5 0 -7.5 -5 0 -5 0 0 -8 0 -8 -5 0 -5 0 0 -7.5 0 -7.5 -5 0 -5 0 0 -7.5 0 -7.5 -80 0 -80 0 0 7.5 0 7.5 -5 0 -5 0 0 7.5 0 7.5 -5 0 -5 0 0 8 0 8 -5 0 -5 0 0 7.5 0 7.5 -5 0 -5 0 0 53.5 0 53.5 5 0 5 0 0 8 0 8 5 0 5 0 0 7.5 0 7.5 5 0 5 0 0 7.5 0 7.5 5 0 5 0 0 8 0 8 80 0 80 0 0 -8z m-220 -153 l0 -23 -5 0 -5 0 0 7.5 0 7.5 -5 0 -5 0 0 7.5 0 7.5 5 0 5 0 0 8 0 8 5 0 5 0 0 -23z m-250 -184.5 l0 -7.5 5 0 5 0 0 -7.5 0 -7.5 5 0 5 0 0 -8 0 -8 5 0 5 0 0 -15 0 -15 20 0 20 0 0 -8 0 -8 5 0 5 0 0 -7.5 0 -7.5 5 0 5 0 0 -7.5 0 -7.5 -30 0 -30 0 0 -100 0 -100 -5 0 -5 0 0 8 0 8 -5 0 -5 0 0 7.5 0 7.5 -5 0 -5 0 0 7.5 0 7.5 -5 0 -5 0 0 8 0 8 -5 0 -5 0 0 7.5 0 7.5 -5 0 -5 0 0 7.5 0 7.5 -5 0 -5 0 0 8 0 8 -5 0 -5 0 0 7.5 0 7.5 -5 0 -5 0 0 7.5 0 7.5 -5 0 -5 0 0 8 0 8 -5 0 -5 0 0 7.5 0 7.5 -5 0 -5 0 0 7.5 0 7.5 -5 0 -5 0 0 8 0 8 -5 0 -5 0 0 7.5 0 7.5 -5 0 -5 0 0 7.5 0 7.5 -5 0 -5 0 0 8 0 8 60 0 60 0 0 38 0 38 5 0 5 0 0 -7.5z"/>
  <path d="M210 828 l0 -15 20 0 20 0 0 15 0 15 -20 0 -20 0 0 -15z"/>
  <path d="M210 782 l0 -15 20 0 20 0 0 15 0 15 -20 0 -20 0 0 -15z"/>
  <path d="M280 805 l0 -8 15 0 15 0 0 8 0 8 -15 0 -15 0 0 -8z"/>
  <path d="M240 629 l0 -46 50 0 50 0 0 7.5 0 7.5 5 0 5 0 0 7.5 0 7.5 5 0 5 0 0 15.5 0 15.5 -5 0 -5 0 0 7.5 0 7.5 -5 0 -5 0 0 8 0 8 -50 0 -50 0 0 -46z"/>
  <path d="M240 491 l0 -46 50 0 50 0 0 7.5 0 7.5 5 0 5 0 0 7.5 0 7.5 5 0 5 0 0 15.5 0 15.5 -5 0 -5 0 0 7.5 0 7.5 -5 0 -5 0 0 8 0 8 -50 0 -50 0 0 -46z"/>
  <path d="M520 575 l0 -8 5 0 5 0 0 -7.5 0 -7.5 5 0 5 0 0 -7.5 0 -7.5 40 0 40 0 0 7.5 0 7.5 5 0 5 0 0 7.5 0 7.5 5 0 5 0 0 8 0 8 -60 0 -60 0 0 -8z"/>
  <path d="M140 253 l0 -8 5 0 5 0 0 -7.5 0 -7.5 5 0 5 0 0 -7.5 0 -7.5 5 0 5 0 0 -8 0 -8 5 0 5 0 0 31 0 31 -20 0 -20 0 0 -8z"/>
  <path d="M62 916 l0 -5 3 0 3 0 0 5 0 5 -3 0 -3 0 0 -5z"/>
  <path d="M72 916 l0 -5 3 0 3 0 0 5 0 5 -3 0 -3 0 0 -5z"/>
  <path d="M82 916 l0 -5 3 0 3 0 0 5 0 5 -3 0 -3 0 0 -5z"/>
  <path d="M92 916 l0 -5 3 0 3 0 0 5 0 5 -3 0 -3 0 0 -5z"/>
  <path d="M102 916 l0 -5 3 0 3 0 0 5 0 5 -3 0 -3 0 0 -5z"/>
  <path d="M112 916 l0 -5 3 0 3 0 0 5 0 5 -3 0 -3 0 0 -5z"/>
  <path d="M122 916 l0 -5 3 0 3 0 0 5 0 5 -3 0 -3 0 0 -5z"/>
  <path d="M132 916 l0 -5 3 0 3 0 0 5 0 5 -3 0 -3 0 0 -5z"/>
  <path d="M142 916 l0 -5 3 0 3 0 0 5 0 5 -3 0 -3 0 0 -5z"/>
  <path d="M152 916 l0 -5 3 0 3 0 0 5 0 5 -3 0 -3 0 0 -5z"/>
  <path d="M162 916 l0 -5 3 0 3 0 0 5 0 5 -3 0 -3 0 0 -5z"/>
  <path d="M672 916 l0 -5 3 0 3 0 0 5 0 5 -3 0 -3 0 0 -5z"/>
  <path d="M682 916 l0 -5 3 0 3 0 0 5 0 5 -3 0 -3 0 0 -5z"/>
  <path d="M692 916 l0 -5 3 0 3 0 0 5 0 5 -3 0 -3 0 0 -5z"/>
  <path d="M702 916 l0 -5 3 0 3 0 0 5 0 5 -3 0 -3 0 0 -5z"/>
  <path d="M712 916 l0 -5 3 0 3 0 0 5 0 5 -3 0 -3 0 0 -5z"/>
  <path d="M722 916 l0 -5 3 0 3 0 0 5 0 5 -3 0 -3 0 0 -5z"/>
  <path d="M732 916 l0 -5 3 0 3 0 0 5 0 5 -3 0 -3 0 0 -5z"/>
  <path d="M742 916 l0 -5 3 0 3 0 0 5 0 5 -3 0 -3 0 0 -5z"/>
  <path d="M752 916 l0 -5 3 0 3 0 0 5 0 5 -3 0 -3 0 0 -5z"/>
  <path d="M762 916 l0 -5 3 0 3 0 0 5 0 5 -3 0 -3 0 0 -5z"/>
  <path d="M772 916 l0 -5 3 0 3 0 0 5 0 5 -3 0 -3 0 0 -5z"/>
  <path d="M42 884 l0 -5 3 0 3 0 0 5 0 5 -3 0 -3 0 0 -5z"/>
  <path d="M52 884.1 l0 -5.1 3.1 0 3 0 -0.3 4.8 -0.3 4.7 -2.7 0.3 -2.8 0.3 0 -5z"/>
  <path d="M62 884 l0 -5 3 0 3 0 0 5 0 5 -3 0 -3 0 0 -5z"/>
  <path d="M72 884.1 l0 -5.1 3.1 0 3 0 -0.3 4.8 -0.3 4.7 -2.7 0.3 -2.8 0.3 0 -5z"/>
  <path d="M82 884 l0 -5 3 0 3 0 0 5 0 5 -3 0 -3 0 0 -5z"/>
  <path d="M92 884.1 l0 -5.1 3.1 0 3 0 -0.3 4.8 -0.3 4.7 -2.7 0.3 -2.8 0.3 0 -5z"/>
  <path d="M102 884 l0 -5 3 0 3 0 0 5 0 5 -3 0 -3 0 0 -5z"/>
  <path d="M112 884.1 l0 -5.1 3.1 0 3 0 -0.3 4.8 -0.3 4.7 -2.7 0.3 -2.8 0.3 0 -5z"/>
  <path d="M122 884 l0 -5 3 0 3 0 0 5 0 5 -3 0 -3 0 0 -5z"/>
  <path d="M132 884.1 l0 -5.1 3.1 0 3 0 -0.3 4.8 -0.3 4.7 -2.7 0.3 -2.8 0.3 0 -5z"/>
  <path d="M142 884 l0 -5 3 0 3 0 0 5 0 5 -3 0 -3 0 0 -5z"/>
  <path d="M152 884.1 l0 -5.1 3.1 0 3 0 -0.3 4.8 -0.3 4.7 -2.7 0.3 -2.8 0.3 0 -5z"/>
  <path d="M162 884 l0 -5 3 0 3 0 0 5 0 5 -3 0 -3 0 0 -5z"/>
  <path d="M672 884.1 l0 -5.1 3.1 0 3 0 -0.3 4.8 -0.3 4.7 -2.7 0.3 -2.8 0.3 0 -5z"/>
  <path d="M682 884 l0 -5 3 0 3 0 0 5 0 5 -3 0 -3 0 0 -5z"/>
  <path d="M692 884.1 l0 -5.1 3.1 0 3 0 -0.3 4.8 -0.3 4.7 -2.7 0.3 -2.8 0.3 0 -5z"/>
  <path d="M702 884 l0 -5 3 0 3 0 0 5 0 5 -3 0 -3 0 0 -5z"/>
  <path d="M712 884 l0 -5 3 0 3 0 0 5 0 5 -3 0 -3 0 0 -5z"/>
  <path d="M722 884 l0 -5 3 0 3 0 0 5 0 5 -3 0 -3 0 0 -5z"/>
  <path d="M732 884.1 l0 -5.1 3.1 0 3 0 -0.3 4.8 -0.3 4.7 -2.7 0.3 -2.8 0.3 0 -5z"/>
  <path d="M742 884 l0 -5 3 0 3 0 0 5 0 5 -3 0 -3 0 0 -5z"/>
  <path d="M752 884.1 l0 -5.1 3.1 0 3 0 -0.3 4.8 -0.3 4.7 -2.7 0.3 -2.8 0.3 0 -5z"/>
  <path d="M762 884 l0 -5 3 0 3 0 0 5 0 5 -3 0 -3 0 0 -5z"/>
  <path d="M772 884 l0 -5 3 0 3 0 0 5 0 5 -3 0 -3 0 0 -5z"/>
  <path d="M782 884 l0 -5 3 0 3 0 0 5 0 5 -3 0 -3 0 0 -5z"/>
  <path d="M792 884.1 l0 -5.1 3.1 0 3 0 -0.3 4.8 -0.3 4.7 -2.7 0.3 -2.8 0.3 0 -5z"/>
  <path d="M32 852.1 l0 -5.1 3.1 0 3 0 -0.3 4.8 -0.3 4.7 -2.7 0.3 -2.8 0.3 0 -5z"/>
  <path d="M42 852.1 l0 -5.1 3.1 0 3 0 -0.3 4.8 -0.3 4.7 -2.7 0.3 -2.8 0.3 0 -5z"/>
  <path d="M52 852.1 l0 -5.1 3.1 0 3 0 -0.3 4.8 -0.3 4.7 -2.7 0.3 -2.8 0.3 0 -5z"/>
  <path d="M62 852.1 l0 -5.1 3.1 0 3 0 -0.3 4.8 -0.3 4.7 -2.7 0.3 -2.8 0.3 0 -5z"/>
  <path d="M72 852.1 l0 -5.1 3.1 0 3 0 -0.3 4.8 -0.3 4.7 -2.7 0.3 -2.8 0.3 0 -5z"/>
  <path d="M82 852.1 l0 -5.1 3.1 0 3 0 -0.3 4.8 -0.3 4.7 -2.7 0.3 -2.8 0.3 0 -5z"/>
  <path d="M92 852.1 l0 -5.1 3.1 0 3 0 -0.3 4.8 -0.3 4.7 -2.7 0.3 -2.8 0.3 0 -5z"/>
  <path d="M102 852.1 l0 -5.1 3.1 0 3 0 -0.3 4.8 -0.3 4.7 -2.7 0.3 -2.8 0.3 0 -5z"/>
  <path d="M112 852.1 l0 -5.1 3.1 0 3 0 -0.3 4.8 -0.3 4.7 -2.7 0.3 -2.8 0.3 0 -5z"/>
  <path d="M122 852.1 l0 -5.1 3.1 0 3 0 -0.3 4.8 -0.3 4.7 -2.7 0.3 -2.8 0.3 0 -5z"/>
  <path d="M132 852.1 l0 -5.1 3.1 0 3 0 -0.3 4.8 -0.3 4.7 -2.7 0.3 -2.8 0.3 0 -5z"/>
  <path d="M142 852.1 l0 -5.1 3.1 0 3 0 -0.3 4.8 -0.3 4.7 -2.7 0.3 -2.8 0.3 0 -5z"/>
  <path d="M152 852.1 l0 -5.1 3.1 0 3 0 -0.3 4.8 -0.3 4.7 -2.7 0.3 -2.8 0.3 0 -5z"/>
  <path d="M162 852.1 l0 -5.1 3.1 0 3 0 -0.3 4.8 -0.3 4.7 -2.7 0.3 -2.8 0.3 0 -5z"/>
  <path d="M672 852.1 l0 -5.1 3.1 0 3 0 -0.3 4.8 -0.3 4.7 -2.7 0.3 -2.8 0.3 0 -5z"/>
  <path d="M682 852 l0 -5 3 0 3 0 0 5 0 5 -3 0 -3 0 0 -5z"/>
  <path d="M692 852.1 l0 -5.1 3.1 0 3 0 -0.3 4.8 -0.3 4.7 -2.7 0.3 -2.8 0.3 0 -5z"/>
  <path d="M702 852 l0 -5 3 0 3 0 0 5 0 5 -3 0 -3 0 0 -5z"/>
  <path d="M712 852.1 l0 -5.1 3.1 0 3 0 -0.3 4.8 -0.3 4.7 -2.7 0.3 -2.8 0.3 0 -5z"/>
  <path d="M722 852 l0 -5 3 0 3 0 0 5 0 5 -3 0 -3 0 0 -5z"/>
  <path d="M732 852.1 l0 -5.1 3.1 0 3 0 -0.3 4.8 -0.3 4.7 -2.7 0.3 -2.8 0.3 0 -5z"/>
  <path d="M742 852.1 l0 -5.1 3.1 0 3 0 -0.3 4.8 -0.3 4.7 -2.7 0.3 -2.8 0.3 0 -5z"/>
  <path d="M752 852.1 l0 -5.1 3.1 0 3 0 -0.3 4.8 -0.3 4.7 -2.7 0.3 -2.8 0.3 0 -5z"/>
  <path d="M762 852.1 l0 -5.1 3.1 0 3 0 -0.3 4.8 -0.3 4.7 -2.7 0.3 -2.8 0.3 0 -5z"/>
  <path d="M772 852.1 l0 -5.1 3.1 0 3 0 -0.3 4.8 -0.3 4.7 -2.7 0.3 -2.8 0.3 0 -5z"/>
  <path d="M782 852.1 l0 -5.1 3.1 0 3 0 -0.3 4.8 -0.3 4.7 -2.7 0.3 -2.8 0.3 0 -5z"/>
  <path d="M792 852.1 l0 -5.1 3.1 0 3 0 -0.3 4.8 -0.3 4.7 -2.7 0.3 -2.8 0.3 0 -5z"/>
  <path d="M802 852.1 l0 -5.1 3.1 0 3 0 -0.3 4.8 -0.3 4.7 -2.7 0.3 -2.8 0.3 0 -5z"/>
  <path d="M32 824 l0 -5 3 0 3 0 0 5 0 5 -3 0 -3 0 0 -5z"/>
  <path d="M42 824 l0 -5 3 0 3 0 0 5 0 5 -3 0 -3 0 0 -5z"/>
  <path d="M52 824 l0 -5 3 0 3 0 0 5 0 5 -3 0 -3 0 0 -5z"/>
  <path d="M62 824 l0 -5 3 0 3 0 0 5 0 5 -3 0 -3 0 0 -5z"/>
  <path d="M72 824 l0 -5 3 0 3 0 0 5 0 5 -3 0 -3 0 0 -5z"/>
  <path d="M82 824 l0 -5 3 0 3 0 0 5 0 5 -3 0 -3 0 0 -5z"/>
  <path d="M92 824 l0 -5 3 0 3 0 0 5 0 5 -3 0 -3 0 0 -5z"/>
  <path d="M102 824 l0 -5 3 0 3 0 0 5 0 5 -3 0 -3 0 0 -5z"/>
  <path d="M112 824 l0 -5 3 0 3 0 0 5 0 5 -3 0 -3 0 0 -5z"/>
  <path d="M122 824 l0 -5 3 0 3 0 0 5 0 5 -3 0 -3 0 0 -5z"/>
  <path d="M132 824 l0 -5 3 0 3 0 0 5 0 5 -3 0 -3 0 0 -5z"/>
  <path d="M142 824 l0 -5 3 0 3 0 0 5 0 5 -3 0 -3 0 0 -5z"/>
  <path d="M152 824 l0 -5 3 0 3 0 0 5 0 5 -3 0 -3 0 0 -5z"/>
  <path d="M162 824 l0 -5 3 0 3 0 0 5 0 5 -3 0 -3 0 0 -5z"/>
  <path d="M672 824 l0 -5 3 0 3 0 0 5 0 5 -3 0 -3 0 0 -5z"/>
  <path d="M682 824 l0 -5 3 0 3 0 0 5 0 5 -3 0 -3 0 0 -5z"/>
  <path d="M692 824 l0 -5 3 0 3 0 0 5 0 5 -3 0 -3 0 0 -5z"/>
  <path d="M702 824 l0 -5 3 0 3 0 0 5 0 5 -3 0 -3 0 0 -5z"/>
  <path d="M712 824 l0 -5 3 0 3 0 0 5 0 5 -3 0 -3 0 0 -5z"/>
  <path d="M722 824 l0 -5 3 0 3 0 0 5 0 5 -3 0 -3 0 0 -5z"/>
  <path d="M732 824 l0 -5 3 0 3 0 0 5 0 5 -3 0 -3 0 0 -5z"/>
  <path d="M742 824 l0 -5 3 0 3 0 0 5 0 5 -3 0 -3 0 0 -5z"/>
  <path d="M752 824 l0 -5 3 0 3 0 0 5 0 5 -3 0 -3 0 0 -5z"/>
  <path d="M762 824 l0 -5 3 0 3 0 0 5 0 5 -3 0 -3 0 0 -5z"/>
  <path d="M772 824 l0 -5 3 0 3 0 0 5 0 5 -3 0 -3 0 0 -5z"/>
  <path d="M782 824 l0 -5 3 0 3 0 0 5 0 5 -3 0 -3 0 0 -5z"/>
  <path d="M792 824 l0 -5 3 0 3 0 0 5 0 5 -3 0 -3 0 0 -5z"/>
  <path d="M802 824 l0 -5 3 0 3 0 0 5 0 5 -3 0 -3 0 0 -5z"/>
  <path d="M32 792.1 l0 -5.1 3.1 0 3 0 -0.3 4.8 -0.3 4.7 -2.7 0.3 -2.8 0.3 0 -5z"/>
  <path d="M42 792 l0 -5 3 0 3 0 0 5 0 5 -3 0 -3 0 0 -5z"/>
  <path d="M52 792.1 l0 -5.1 3.1 0 3 0 -0.3 4.8 -0.3 4.7 -2.7 0.3 -2.8 0.3 0 -5z"/>
  <path d="M62 792 l0 -5 3 0 3 0 0 5 0 5 -3 0 -3 0 0 -5z"/>
  <path d="M72 792.1 l0 -5.1 3.1 0 3 0 -0.3 4.8 -0.3 4.7 -2.7 0.3 -2.8 0.3 0 -5z"/>
  <path d="M82 792 l0 -5 3 0 3 0 0 5 0 5 -3 0 -3 0 0 -5z"/>
  <path d="M92 792.1 l0 -5.1 3.1 0 3 0 -0.3 4.8 -0.3 4.7 -2.7 0.3 -2.8 0.3 0 -5z"/>
  <path d="M672 792 l0 -5 3 0 3 0 0 5 0 5 -3 0 -3 0 0 -5z"/>
  <path d="M682 792 l0 -5 3 0 3 0 0 5 0 5 -3 0 -3 0 0 -5z"/>
  <path d="M692 792 l0 -5 3 0 3 0 0 5 0 5 -3 0 -3 0 0 -5z"/>
  <path d="M702 792 l0 -5 3 0 3 0 0 5 0 5 -3 0 -3 0 0 -5z"/>
  <path d="M712 792.1 l0 -5.1 3.1 0 3 0 -0.3 4.8 -0.3 4.7 -2.7 0.3 -2.8 0.3 0 -5z"/>
  <path d="M722 792 l0 -5 3 0 3 0 0 5 0 5 -3 0 -3 0 0 -5z"/>
  <path d="M732 792.1 l0 -5.1 3.1 0 3 0 -0.3 4.8 -0.3 4.7 -2.7 0.3 -2.8 0.3 0 -5z"/>
  <path d="M742 792 l0 -5 3 0 3 0 0 5 0 5 -3 0 -3 0 0 -5z"/>
  <path d="M752 792.1 l0 -5.1 3.1 0 3 0 -0.3 4.8 -0.3 4.7 -2.7 0.3 -2.8 0.3 0 -5z"/>
  <path d="M762 792 l0 -5 3 0 3 0 0 5 0 5 -3 0 -3 0 0 -5z"/>
  <path d="M772 792.1 l0 -5.1 3.1 0 3 0 -0.3 4.8 -0.3 4.7 -2.7 0.3 -2.8 0.3 0 -5z"/>
  <path d="M782 792 l0 -5 3 0 3 0 0 5 0 5 -3 0 -3 0 0 -5z"/>
  <path d="M792 792.1 l0 -5.1 3.1 0 3 0 -0.3 4.8 -0.3 4.7 -2.7 0.3 -2.8 0.3 0 -5z"/>
  <path d="M802 792 l0 -5 3 0 3 0 0 5 0 5 -3 0 -3 0 0 -5z"/>
  <path d="M32 760.1 l0 -5.1 3.1 0 3 0 -0.3 4.8 -0.3 4.7 -2.7 0.3 -2.8 0.3 0 -5z"/>
  <path d="M42 760.1 l0 -5.1 3.1 0 3 0 -0.3 4.8 -0.3 4.7 -2.7 0.3 -2.8 0.3 0 -5z"/>
  <path d="M52 760.1 l0 -5.1 3.1 0 3 0 -0.3 4.8 -0.3 4.7 -2.7 0.3 -2.8 0.3 0 -5z"/>
  <path d="M62 760.1 l0 -5.1 3.1 0 3 0 -0.3 4.8 -0.3 4.7 -2.7 0.3 -2.8 0.3 0 -5z"/>
  <path d="M72 760.1 l0 -5.1 3.1 0 3 0 -0.3 4.8 -0.3 4.7 -2.7 0.3 -2.8 0.3 0 -5z"/>
  <path d="M82 760.1 l0 -5.1 3.1 0 3 0 -0.3 4.8 -0.3 4.7 -2.7 0.3 -2.8 0.3 0 -5z"/>
  <path d="M92 760.1 l0 -5.1 3.1 0 3 0 -0.3 4.8 -0.3 4.7 -2.7 0.3 -2.8 0.3 0 -5z"/>
  <path d="M702 760.1 l0 -5.1 3.1 0 3 0 -0.3 4.8 -0.3 4.7 -2.7 0.3 -2.8 0.3 0 -5z"/>
  <path d="M712 760.1 l0 -5.1 3.1 0 3 0 -0.3 4.8 -0.3 4.7 -2.7 0.3 -2.8 0.3 0 -5z"/>
  <path d="M722 760.1 l0 -5.1 3.1 0 3 0 -0.3 4.8 -0.3 4.7 -2.7 0.3 -2.8 0.3 0 -5z"/>
  <path d="M732 760.1 l0 -5.1 3.1 0 3 0 -0.3 4.8 -0.3 4.7 -2.7 0.3 -2.8 0.3 0 -5z"/>
  <path d="M742 760.1 l0 -5.1 3.1 0 3 0 -0.3 4.8 -0.3 4.7 -2.7 0.3 -2.8 0.3 0 -5z"/>
  <path d="M752 760.1 l0 -5.1 3.1 0 3 0 -0.3 4.8 -0.3 4.7 -2.7 0.3 -2.8 0.3 0 -5z"/>
  <path d="M762 760.1 l0 -5.1 3.1 0 3 0 -0.3 4.8 -0.3 4.7 -2.7 0.3 -2.8 0.3 0 -5z"/>
  <path d="M772 760.1 l0 -5.1 3.1 0 3 0 -0.3 4.8 -0.3 4.7 -2.7 0.3 -2.8 0.3 0 -5z"/>
  <path d="M782 760 l0 -5 3 0 3 0 0 5 0 5 -3 0 -3 0 0 -5z"/>
  <path d="M792 760.1 l0 -5.1 3.1 0 3 0 -0.3 4.8 -0.3 4.7 -2.7 0.3 -2.8 0.3 0 -5z"/>
  <path d="M802 760 l0 -5 3 0 3 0 0 5 0 5 -3 0 -3 0 0 -5z"/>
  <path d="M32 732 l0 -5 3 0 3 0 0 5 0 5 -3 0 -3 0 0 -5z"/>
  <path d="M42 732 l0 -5 3 0 3 0 0 5 0 5 -3 0 -3 0 0 -5z"/>
  <path d="M52 732 l0 -5 3 0 3 0 0 5 0 5 -3 0 -3 0 0 -5z"/>
  <path d="M62 732 l0 -5 3 0 3 0 0 5 0 5 -3 0 -3 0 0 -5z"/>
  <path d="M72 732 l0 -5 3 0 3 0 0 5 0 5 -3 0 -3 0 0 -5z"/>
  <path d="M82 732 l0 -5 3 0 3 0 0 5 0 5 -3 0 -3 0 0 -5z"/>
  <path d="M92 732 l0 -5 3 0 3 0 0 5 0 5 -3 0 -3 0 0 -5z"/>
  <path d="M722 732 l0 -5 3 0 3 0 0 5 0 5 -3 0 -3 0 0 -5z"/>
  <path d="M732 732 l0 -5 3 0 3 0 0 5 0 5 -3 0 -3 0 0 -5z"/>
  <path d="M742 732 l0 -5 3 0 3 0 0 5 0 5 -3 0 -3 0 0 -5z"/>
  <path d="M752 732 l0 -5 3 0 3 0 0 5 0 5 -3 0 -3 0 0 -5z"/>
  <path d="M762 732 l0 -5 3 0 3 0 0 5 0 5 -3 0 -3 0 0 -5z"/>
  <path d="M772 732 l0 -5 3 0 3 0 0 5 0 5 -3 0 -3 0 0 -5z"/>
  <path d="M782 732 l0 -5 3 0 3 0 0 5 0 5 -3 0 -3 0 0 -5z"/>
  <path d="M792 732 l0 -5 3 0 3 0 0 5 0 5 -3 0 -3 0 0 -5z"/>
  <path d="M802 732 l0 -5 3 0 3 0 0 5 0 5 -3 0 -3 0 0 -5z"/>
  <path d="M32 700.1 l0 -5.1 3.1 0 3 0 -0.3 4.8 -0.3 4.7 -2.7 0.3 -2.8 0.3 0 -5z"/>
  <path d="M42 700 l0 -5 3 0 3 0 0 5 0 5 -3 0 -3 0 0 -5z"/>
  <path d="M52 700.1 l0 -5.1 3.1 0 3 0 -0.3 4.8 -0.3 4.7 -2.7 0.3 -2.8 0.3 0 -5z"/>
  <path d="M62 700 l0 -5 3 0 3 0 0 5 0 5 -3 0 -3 0 0 -5z"/>
  <path d="M72 700.1 l0 -5.1 3.1 0 3 0 -0.3 4.8 -0.3 4.7 -2.7 0.3 -2.8 0.3 0 -5z"/>
  <path d="M82 700 l0 -5 3 0 3 0 0 5 0 5 -3 0 -3 0 0 -5z"/>
  <path d="M92 700.1 l0 -5.1 3.1 0 3 0 -0.3 4.8 -0.3 4.7 -2.7 0.3 -2.8 0.3 0 -5z"/>
  <path d="M102 700 l0 -5 3 0 3 0 0 5 0 5 -3 0 -3 0 0 -5z"/>
  <path d="M112 700.1 l0 -5.1 3.1 0 3 0 -0.3 4.8 -0.3 4.7 -2.7 0.3 -2.8 0.3 0 -5z"/>
  <path d="M732 700 l0 -5 3 0 3 0 0 5 0 5 -3 0 -3 0 0 -5z"/>
  <path d="M742 700 l0 -5 3 0 3 0 0 5 0 5 -3 0 -3 0 0 -5z"/>
  <path d="M752 700 l0 -5 3 0 3 0 0 5 0 5 -3 0 -3 0 0 -5z"/>
  <path d="M762 700 l0 -5 3 0 3 0 0 5 0 5 -3 0 -3 0 0 -5z"/>
  <path d="M772 700 l0 -5 3 0 3 0 0 5 0 5 -3 0 -3 0 0 -5z"/>
  <path d="M782 700 l0 -5 3 0 3 0 0 5 0 5 -3 0 -3 0 0 -5z"/>
  <path d="M792 700 l0 -5 3 0 3 0 0 5 0 5 -3 0 -3 0 0 -5z"/>
  <path d="M802 700 l0 -5 3 0 3 0 0 5 0 5 -3 0 -3 0 0 -5z"/>
  <path d="M32 668.1 l0 -5.1 3.1 0 3 0 -0.3 4.8 -0.3 4.7 -2.7 0.3 -2.8 0.3 0 -5z"/>
  <path d="M42 668.1 l0 -5.1 3.1 0 3 0 -0.3 4.8 -0.3 4.7 -2.7 0.3 -2.8 0.3 0 -5z"/>
  <path d="M52 668.1 l0 -5.1 3.1 0 3 0 -0.3 4.8 -0.3 4.7 -2.7 0.3 -2.8 0.3 0 -5z"/>
  <path d="M62 668.1 l0 -5.1 3.1 0 3 0 -0.3 4.8 -0.3 4.7 -2.7 0.3 -2.8 0.3 0 -5z"/>
  <path d="M72 668.1 l0 -5.1 3.1 0 3 0 -0.3 4.8 -0.3 4.7 -2.7 0.3 -2.8 0.3 0 -5z"/>
  <path d="M82 668.1 l0 -5.1 3.1 0 3 0 -0.3 4.8 -0.3 4.7 -2.7 0.3 -2.8 0.3 0 -5z"/>
  <path d="M92 668.1 l0 -5.1 3.1 0 3 0 -0.3 4.8 -0.3 4.7 -2.7 0.3 -2.8 0.3 0 -5z"/>
  <path d="M102 668 l0 -5 3 0 3 0 0 5 0 5 -3 0 -3 0 0 -5z"/>
  <path d="M112 668.1 l0 -5.1 3.1 0 3 0 -0.3 4.8 -0.3 4.7 -2.7 0.3 -2.8 0.3 0 -5z"/>
  <path d="M122 668 l0 -5 3 0 3 0 0 5 0 5 -3 0 -3 0 0 -5z"/>
  <path d="M732 668.1 l0 -5.1 3.1 0 3 0 -0.3 4.8 -0.3 4.7 -2.7 0.3 -2.8 0.3 0 -5z"/>
  <path d="M742 668 l0 -5 3 0 3 0 0 5 0 5 -3 0 -3 0 0 -5z"/>
  <path d="M752 668.1 l0 -5.1 3.1 0 3 0 -0.3 4.8 -0.3 4.7 -2.7 0.3 -2.8 0.3 0 -5z"/>
  <path d="M762 668 l0 -5 3 0 3 0 0 5 0 5 -3 0 -3 0 0 -5z"/>
  <path d="M772 668.1 l0 -5.1 3.1 0 3 0 -0.3 4.8 -0.3 4.7 -2.7 0.3 -2.8 0.3 0 -5z"/>
  <path d="M782 668 l0 -5 3 0 3 0 0 5 0 5 -3 0 -3 0 0 -5z"/>
  <path d="M792 668.1 l0 -5.1 3.1 0 3 0 -0.3 4.8 -0.3 4.7 -2.7 0.3 -2.8 0.3 0 -5z"/>
  <path d="M802 668 l0 -5 3 0 3 0 0 5 0 5 -3 0 -3 0 0 -5z"/>
  <path d="M32 640 l0 -5 3 0 3 0 0 5 0 5 -3 0 -3 0 0 -5z"/>
  <path d="M42 640 l0 -5 3 0 3 0 0 5 0 5 -3 0 -3 0 0 -5z"/>
  <path d="M52 640 l0 -5 3 0 3 0 0 5 0 5 -3 0 -3 0 0 -5z"/>
  <path d="M62 640 l0 -5 3 0 3 0 0 5 0 5 -3 0 -3 0 0 -5z"/>
  <path d="M72 640 l0 -5 3 0 3 0 0 5 0 5 -3 0 -3 0 0 -5z"/>
  <path d="M82 640 l0 -5 3 0 3 0 0 5 0 5 -3 0 -3 0 0 -5z"/>
  <path d="M92 640 l0 -5 3 0 3 0 0 5 0 5 -3 0 -3 0 0 -5z"/>
  <path d="M102 640 l0 -5 3 0 3 0 0 5 0 5 -3 0 -3 0 0 -5z"/>
  <path d="M112 640 l0 -5 3 0 3 0 0 5 0 5 -3 0 -3 0 0 -5z"/>
  <path d="M122 640 l0 -5 3 0 3 0 0 5 0 5 -3 0 -3 0 0 -5z"/>
  <path d="M132 640 l0 -5 3 0 3 0 0 5 0 5 -3 0 -3 0 0 -5z"/>
  <path d="M732 640 l0 -5 3 0 3 0 0 5 0 5 -3 0 -3 0 0 -5z"/>
  <path d="M742 640 l0 -5 3 0 3 0 0 5 0 5 -3 0 -3 0 0 -5z"/>
  <path d="M752 640 l0 -5 3 0 3 0 0 5 0 5 -3 0 -3 0 0 -5z"/>
  <path d="M762 640 l0 -5 3 0 3 0 0 5 0 5 -3 0 -3 0 0 -5z"/>
  <path d="M772 640 l0 -5 3 0 3 0 0 5 0 5 -3 0 -3 0 0 -5z"/>
  <path d="M782 640 l0 -5 3 0 3 0 0 5 0 5 -3 0 -3 0 0 -5z"/>
  <path d="M792 640 l0 -5 3 0 3 0 0 5 0 5 -3 0 -3 0 0 -5z"/>
  <path d="M802 640 l0 -5 3 0 3 0 0 5 0 5 -3 0 -3 0 0 -5z"/>
  <path d="M32 608.1 l0 -5.1 3.1 0 3 0 -0.3 4.8 -0.3 4.7 -2.7 0.3 -2.8 0.3 0 -5z"/>
  <path d="M42 608 l0 -5 3 0 3 0 0 5 0 5 -3 0 -3 0 0 -5z"/>
  <path d="M52 608.1 l0 -5.1 3.1 0 3 0 -0.3 4.8 -0.3 4.7 -2.7 0.3 -2.8 0.3 0 -5z"/>
  <path d="M62 608 l0 -5 3 0 3 0 0 5 0 5 -3 0 -3 0 0 -5z"/>
  <path d="M72 608.1 l0 -5.1 3.1 0 3 0 -0.3 4.8 -0.3 4.7 -2.7 0.3 -2.8 0.3 0 -5z"/>
  <path d="M82 608 l0 -5 3 0 3 0 0 5 0 5 -3 0 -3 0 0 -5z"/>
  <path d="M92 608.1 l0 -5.1 3.1 0 3 0 -0.3 4.8 -0.3 4.7 -2.7 0.3 -2.8 0.3 0 -5z"/>
  <path d="M102 608 l0 -5 3 0 3 0 0 5 0 5 -3 0 -3 0 0 -5z"/>
  <path d="M112 608.1 l0 -5.1 3.1 0 3 0 -0.3 4.8 -0.3 4.7 -2.7 0.3 -2.8 0.3 0 -5z"/>
  <path d="M122 608 l0 -5 3 0 3 0 0 5 0 5 -3 0 -3 0 0 -5z"/>
  <path d="M132 608 l0 -5 3 0 3 0 0 5 0 5 -3 0 -3 0 0 -5z"/>
  <path d="M732 608.1 l0 -5.1 3.1 0 3 0 -0.3 4.8 -0.3 4.7 -2.7 0.3 -2.8 0.3 0 -5z"/>
  <path d="M742 608 l0 -5 3 0 3 0 0 5 0 5 -3 0 -3 0 0 -5z"/>
  <path d="M752 608 l0 -5 3 0 3 0 0 5 0 5 -3 0 -3 0 0 -5z"/>
  <path d="M762 608 l0 -5 3 0 3 0 0 5 0 5 -3 0 -3 0 0 -5z"/>
  <path d="M772 608 l0 -5 3 0 3 0 0 5 0 5 -3 0 -3 0 0 -5z"/>
  <path d="M782 608 l0 -5 3 0 3 0 0 5 0 5 -3 0 -3 0 0 -5z"/>
  <path d="M792 608 l0 -5 3 0 3 0 0 5 0 5 -3 0 -3 0 0 -5z"/>
  <path d="M802 608 l0 -5 3 0 3 0 0 5 0 5 -3 0 -3 0 0 -5z"/>
  <path d="M32 576.1 l0 -5.1 3.1 0 3 0 -0.3 4.8 -0.3 4.7 -2.7 0.3 -2.8 0.3 0 -5z"/>
  <path d="M42 576 l0 -5 3 0 3 0 0 5 0 5 -3 0 -3 0 0 -5z"/>
  <path d="M52 576.1 l0 -5.1 3.1 0 3 0 -0.3 4.8 -0.3 4.7 -2.7 0.3 -2.8 0.3 0 -5z"/>
  <path d="M62 576.1 l0 -5.1 3.1 0 3 0 -0.3 4.8 -0.3 4.7 -2.7 0.3 -2.8 0.3 0 -5z"/>
  <path d="M72 576.1 l0 -5.1 3.1 0 3 0 -0.3 4.8 -0.3 4.7 -2.7 0.3 -2.8 0.3 0 -5z"/>
  <path d="M82 576 l0 -5 3 0 3 0 0 5 0 5 -3 0 -3 0 0 -5z"/>
  <path d="M92 576.1 l0 -5.1 3.1 0 3 0 -0.3 4.8 -0.3 4.7 -2.7 0.3 -2.8 0.3 0 -5z"/>
  <path d="M102 576 l0 -5 3 0 3 0 0 5 0 5 -3 0 -3 0 0 -5z"/>
  <path d="M112 576.1 l0 -5.1 3.1 0 3 0 -0.3 4.8 -0.3 4.7 -2.7 0.3 -2.8 0.3 0 -5z"/>
  <path d="M122 576 l0 -5 3 0 3 0 0 5 0 5 -3 0 -3 0 0 -5z"/>
  <path d="M132 576.1 l0 -5.1 3.1 0 3 0 -0.3 4.8 -0.3 4.7 -2.7 0.3 -2.8 0.3 0 -5z"/>
  <path d="M732 576.1 l0 -5.1 3.1 0 3 0 -0.3 4.8 -0.3 4.7 -2.7 0.3 -2.8 0.3 0 -5z"/>
  <path d="M742 576 l0 -5 3 0 3 0 0 5 0 5 -3 0 -3 0 0 -5z"/>
  <path d="M752 576.1 l0 -5.1 3.1 0 3 0 -0.3 4.8 -0.3 4.7 -2.7 0.3 -2.8 0.3 0 -5z"/>
  <path d="M762 576 l0 -5 3 0 3 0 0 5 0 5 -3 0 -3 0 0 -5z"/>
  <path d="M772 576.1 l0 -5.1 3.1 0 3 0 -0.3 4.8 -0.3 4.7 -2.7 0.3 -2.8 0.3 0 -5z"/>
  <path d="M782 576 l0 -5 3 0 3 0 0 5 0 5 -3 0 -3 0 0 -5z"/>
  <path d="M792 576.1 l0 -5.1 3.1 0 3 0 -0.3 4.8 -0.3 4.7 -2.7 0.3 -2.8 0.3 0 -5z"/>
  <path d="M802 576.1 l0 -5.1 3.1 0 3 0 -0.3 4.8 -0.3 4.7 -2.7 0.3 -2.8 0.3 0 -5z"/>
  <path d="M32 548 l0 -5 3 0 3 0 0 5 0 5 -3 0 -3 0 0 -5z"/>
  <path d="M42 548 l0 -5 3 0 3 0 0 5 0 5 -3 0 -3 0 0 -5z"/>
  <path d="M52 548 l0 -5 3 0 3 0 0 5 0 5 -3 0 -3 0 0 -5z"/>
  <path d="M62 548 l0 -5 3 0 3 0 0 5 0 5 -3 0 -3 0 0 -5z"/>
  <path d="M72 548 l0 -5 3 0 3 0 0 5 0 5 -3 0 -3 0 0 -5z"/>
  <path d="M82 548 l0 -5 3 0 3 0 0 5 0 5 -3 0 -3 0 0 -5z"/>
  <path d="M92 548 l0 -5 3 0 3 0 0 5 0 5 -3 0 -3 0 0 -5z"/>
  <path d="M102 548 l0 -5 3 0 3 0 0 5 0 5 -3 0 -3 0 0 -5z"/>
  <path d="M112 548 l0 -5 3 0 3 0 0 5 0 5 -3 0 -3 0 0 -5z"/>
  <path d="M122 548 l0 -5 3 0 3 0 0 5 0 5 -3 0 -3 0 0 -5z"/>
  <path d="M132 548 l0 -5 3 0 3 0 0 5 0 5 -3 0 -3 0 0 -5z"/>
  <path d="M732 548 l0 -5 3 0 3 0 0 5 0 5 -3 0 -3 0 0 -5z"/>
  <path d="M742 548 l0 -5 3 0 3 0 0 5 0 5 -3 0 -3 0 0 -5z"/>
  <path d="M752 548 l0 -5 3 0 3 0 0 5 0 5 -3 0 -3 0 0 -5z"/>
  <path d="M762 548 l0 -5 3 0 3 0 0 5 0 5 -3 0 -3 0 0 -5z"/>
  <path d="M772 548 l0 -5 3 0 3 0 0 5 0 5 -3 0 -3 0 0 -5z"/>
  <path d="M782 548 l0 -5 3 0 3 0 0 5 0 5 -3 0 -3 0 0 -5z"/>
  <path d="M792 548 l0 -5 3 0 3 0 0 5 0 5 -3 0 -3 0 0 -5z"/>
  <path d="M802 548 l0 -5 3 0 3 0 0 5 0 5 -3 0 -3 0 0 -5z"/>
  <path d="M32 516.1 l0 -5.1 3.1 0 3 0 -0.3 4.8 -0.3 4.7 -2.7 0.3 -2.8 0.3 0 -5z"/>
  <path d="M42 516 l0 -5 3 0 3 0 0 5 0 5 -3 0 -3 0 0 -5z"/>
  <path d="M52 516.1 l0 -5.1 3.1 0 3 0 -0.3 4.8 -0.3 4.7 -2.7 0.3 -2.8 0.3 0 -5z"/>
  <path d="M62 516 l0 -5 3 0 3 0 0 5 0 5 -3 0 -3 0 0 -5z"/>
  <path d="M72 516.1 l0 -5.1 3.1 0 3 0 -0.3 4.8 -0.3 4.7 -2.7 0.3 -2.8 0.3 0 -5z"/>
  <path d="M82 516 l0 -5 3 0 3 0 0 5 0 5 -3 0 -3 0 0 -5z"/>
  <path d="M92 516 l0 -5 3 0 3 0 0 5 0 5 -3 0 -3 0 0 -5z"/>
  <path d="M102 516 l0 -5 3 0 3 0 0 5 0 5 -3 0 -3 0 0 -5z"/>
  <path d="M112 516.1 l0 -5.1 3.1 0 3 0 -0.3 4.8 -0.3 4.7 -2.7 0.3 -2.8 0.3 0 -5z"/>
  <path d="M722 516 l0 -5 3 0 3 0 0 5 0 5 -3 0 -3 0 0 -5z"/>
  <path d="M732 516 l0 -5 3 0 3 0 0 5 0 5 -3 0 -3 0 0 -5z"/>
  <path d="M742 516 l0 -5 3 0 3 0 0 5 0 5 -3 0 -3 0 0 -5z"/>
  <path d="M752 516 l0 -5 3 0 3 0 0 5 0 5 -3 0 -3 0 0 -5z"/>
  <path d="M762 516 l0 -5 3 0 3 0 0 5 0 5 -3 0 -3 0 0 -5z"/>
  <path d="M772 516 l0 -5 3 0 3 0 0 5 0 5 -3 0 -3 0 0 -5z"/>
  <path d="M782 516 l0 -5 3 0 3 0 0 5 0 5 -3 0 -3 0 0 -5z"/>
  <path d="M792 516 l0 -5 3 0 3 0 0 5 0 5 -3 0 -3 0 0 -5z"/>
  <path d="M802 516 l0 -5 3 0 3 0 0 5 0 5 -3 0 -3 0 0 -5z"/>
  <path d="M32 484.1 l0 -5.1 3.1 0 3 0 -0.3 4.8 -0.3 4.7 -2.7 0.3 -2.8 0.3 0 -5z"/>
  <path d="M42 484.1 l0 -5.1 3.1 0 3 0 -0.3 4.8 -0.3 4.7 -2.7 0.3 -2.8 0.3 0 -5z"/>
  <path d="M52 484.1 l0 -5.1 3.1 0 3 0 -0.3 4.8 -0.3 4.7 -2.7 0.3 -2.8 0.3 0 -5z"/>
  <path d="M62 484.1 l0 -5.1 3.1 0 3 0 -0.3 4.8 -0.3 4.7 -2.7 0.3 -2.8 0.3 0 -5z"/>
  <path d="M72 484.1 l0 -5.1 3.1 0 3 0 -0.3 4.8 -0.3 4.7 -2.7 0.3 -2.8 0.3 0 -5z"/>
  <path d="M82 484.1 l0 -5.1 3.1 0 3 0 -0.3 4.8 -0.3 4.7 -2.7 0.3 -2.8 0.3 0 -5z"/>
  <path d="M92 484.1 l0 -5.1 3.1 0 3 0 -0.3 4.8 -0.3 4.7 -2.7 0.3 -2.8 0.3 0 -5z"/>
  <path d="M452 484.1 l0 -5.1 3.1 0 3 0 -0.3 4.8 -0.3 4.7 -2.7 0.3 -2.8 0.3 0 -5z"/>
  <path d="M702 484.1 l0 -5.1 3.1 0 3 0 -0.3 4.8 -0.3 4.7 -2.7 0.3 -2.8 0.3 0 -5z"/>
  <path d="M712 484.1 l0 -5.1 3.1 0 3 0 -0.3 4.8 -0.3 4.7 -2.7 0.3 -2.8 0.3 0 -5z"/>
  <path d="M722 484.1 l0 -5.1 3.1 0 3 0 -0.3 4.8 -0.3 4.7 -2.7 0.3 -2.8 0.3 0 -5z"/>
  <path d="M732 484.1 l0 -5.1 3.1 0 3 0 -0.3 4.8 -0.3 4.7 -2.7 0.3 -2.8 0.3 0 -5z"/>
  <path d="M742 484.1 l0 -5.1 3.1 0 3 0 -0.3 4.8 -0.3 4.7 -2.7 0.3 -2.8 0.3 0 -5z"/>
  <path d="M752 484.1 l0 -5.1 3.1 0 3 0 -0.3 4.8 -0.3 4.7 -2.7 0.3 -2.8 0.3 0 -5z"/>
  <path d="M762.7 488.4 l-0.7 -0.7 0 -4.4 0 -4.3 3.1 0 3 0 -0.3 4.8 -0.3 4.7 -2 0.3 -2.1 0.3 -0.7 -0.7z"/>
  <path d="M772 484.1 l0 -5.1 3.1 0 3 0 -0.3 4.8 -0.3 4.7 -2.7 0.3 -2.8 0.3 0 -5z"/>
  <path d="M782 484.1 l0 -5.1 3.1 0 3 0 -0.3 4.8 -0.3 4.7 -2.7 0.3 -2.8 0.3 0 -5z"/>
  <path d="M792 484.1 l0 -5.1 3.1 0 3 0 -0.3 4.8 -0.3 4.7 -2.7 0.3 -2.8 0.3 0 -5z"/>
  <path d="M802 484.1 l0 -5.1 3.1 0 3 0 -0.3 4.8 -0.3 4.7 -2.7 0.3 -2.8 0.3 0 -5z"/>
  <path d="M32 456 l0 -5 3 0 3 0 0 5 0 5 -3 0 -3 0 0 -5z"/>
  <path d="M42 456 l0 -5 3 0 3 0 0 5 0 5 -3 0 -3 0 0 -5z"/>
  <path d="M52 456 l0 -5 3 0 3 0 0 5 0 5 -3 0 -3 0 0 -5z"/>
  <path d="M62 456 l0 -5 3 0 3 0 0 5 0 5 -3 0 -3 0 0 -5z"/>
  <path d="M72 456 l0 -5 3 0 3 0 0 5 0 5 -3 0 -3 0 0 -5z"/>
  <path d="M452 456 l0 -5 3 0 3 0 0 5 0 5 -3 0 -3 0 0 -5z"/>
  <path d="M462 456 l0 -5 3 0 3 0 0 5 0 5 -3 0 -3 0 0 -5z"/>
  <path d="M472 456 l0 -5 3 0 3 0 0 5 0 5 -3 0 -3 0 0 -5z"/>
  <path d="M682 456 l0 -5 3 0 3 0 0 5 0 5 -3 0 -3 0 0 -5z"/>
  <path d="M692 456 l0 -5 3 0 3 0 0 5 0 5 -3 0 -3 0 0 -5z"/>
  <path d="M702 456 l0 -5 3 0 3 0 0 5 0 5 -3 0 -3 0 0 -5z"/>
  <path d="M712 456 l0 -5 3 0 3 0 0 5 0 5 -3 0 -3 0 0 -5z"/>
  <path d="M722 456 l0 -5 3 0 3 0 0 5 0 5 -3 0 -3 0 0 -5z"/>
  <path d="M732 456 l0 -5 3 0 3 0 0 5 0 5 -3 0 -3 0 0 -5z"/>
  <path d="M742 456 l0 -5 3 0 3 0 0 5 0 5 -3 0 -3 0 0 -5z"/>
  <path d="M752 456 l0 -5 3 0 3 0 0 5 0 5 -3 0 -3 0 0 -5z"/>
  <path d="M762 456 l0 -5 3 0 3 0 0 5 0 5 -3 0 -3 0 0 -5z"/>
  <path d="M772 456 l0 -5 3 0 3 0 0 5 0 5 -3 0 -3 0 0 -5z"/>
  <path d="M782 456 l0 -5 3 0 3 0 0 5 0 5 -3 0 -3 0 0 -5z"/>
  <path d="M792 456 l0 -5 3 0 3 0 0 5 0 5 -3 0 -3 0 0 -5z"/>
  <path d="M802 456 l0 -5 3 0 3 0 0 5 0 5 -3 0 -3 0 0 -5z"/>
  <path d="M32 424.1 l0 -5.1 3.1 0 3 0 -0.3 4.8 -0.3 4.7 -2.7 0.3 -2.8 0.3 0 -5z"/>
  <path d="M42 424 l0 -5 3 0 3 0 0 5 0 5 -3 0 -3 0 0 -5z"/>
  <path d="M52 424.1 l0 -5.1 3.1 0 3 0 -0.3 4.8 -0.3 4.7 -2.7 0.3 -2.8 0.3 0 -5z"/>
  <path d="M442 424 l0 -5 3 0 3 0 0 5 0 5 -3 0 -3 0 0 -5z"/>
  <path d="M452 424.1 l0 -5.1 3.1 0 3 0 -0.3 4.8 -0.3 4.7 -2.7 0.3 -2.8 0.3 0 -5z"/>
  <path d="M462 424 l0 -5 3 0 3 0 0 5 0 5 -3 0 -3 0 0 -5z"/>
  <path d="M472 424.1 l0 -5.1 3.1 0 3 0 -0.3 4.8 -0.3 4.7 -2.7 0.3 -2.8 0.3 0 -5z"/>
  <path d="M482 424 l0 -5 3 0 3 0 0 5 0 5 -3 0 -3 0 0 -5z"/>
  <path d="M492 424.1 l0 -5.1 3.1 0 3 0 -0.3 4.8 -0.3 4.7 -2.7 0.3 -2.8 0.3 0 -5z"/>
  <path d="M502 424 l0 -5 3 0 3 0 0 5 0 5 -3 0 -3 0 0 -5z"/>
  <path d="M512 424.1 l0 -5.1 3.1 0 3 0 -0.3 4.8 -0.3 4.7 -2.7 0.3 -2.8 0.3 0 -5z"/>
  <path d="M522 424 l0 -5 3 0 3 0 0 5 0 5 -3 0 -3 0 0 -5z"/>
  <path d="M532 424 l0 -5 3 0 3 0 0 5 0 5 -3 0 -3 0 0 -5z"/>
  <path d="M542 424 l0 -5 3 0 3 0 0 5 0 5 -3 0 -3 0 0 -5z"/>
  <path d="M552 424 l0 -5 3 0 3 0 0 5 0 5 -3 0 -3 0 0 -5z"/>
  <path d="M562 424 l0 -5 3 0 3 0 0 5 0 5 -3 0 -3 0 0 -5z"/>
  <path d="M572 424 l0 -5 3 0 3 0 0 5 0 5 -3 0 -3 0 0 -5z"/>
  <path d="M582 424 l0 -5 3 0 3 0 0 5 0 5 -3 0 -3 0 0 -5z"/>
  <path d="M592 424.1 l0 -5.1 3.1 0 3 0 -0.3 4.8 -0.3 4.7 -2.7 0.3 -2.8 0.3 0 -5z"/>
  <path d="M602 424 l0 -5 3 0 3 0 0 5 0 5 -3 0 -3 0 0 -5z"/>
  <path d="M612 424.1 l0 -5.1 3.1 0 3 0 -0.3 4.8 -0.3 4.7 -2.7 0.3 -2.8 0.3 0 -5z"/>
  <path d="M622 424 l0 -5 3 0 3 0 0 5 0 5 -3 0 -3 0 0 -5z"/>
  <path d="M632 424.1 l0 -5.1 3.1 0 3 0 -0.3 4.8 -0.3 4.7 -2.7 0.3 -2.8 0.3 0 -5z"/>
  <path d="M642 424 l0 -5 3 0 3 0 0 5 0 5 -3 0 -3 0 0 -5z"/>
  <path d="M652 424.1 l0 -5.1 3.1 0 3 0 -0.3 4.8 -0.3 4.7 -2.7 0.3 -2.8 0.3 0 -5z"/>
  <path d="M662 424 l0 -5 3 0 3 0 0 5 0 5 -3 0 -3 0 0 -5z"/>
  <path d="M672 424.1 l0 -5.1 3.1 0 3 0 -0.3 4.8 -0.3 4.7 -2.7 0.3 -2.8 0.3 0 -5z"/>
  <path d="M682 424 l0 -5 3 0 3 0 0 5 0 5 -3 0 -3 0 0 -5z"/>
  <path d="M692 424.1 l0 -5.1 3.1 0 3 0 -0.3 4.8 -0.3 4.7 -2.7 0.3 -2.8 0.3 0 -5z"/>
  <path d="M702 424 l0 -5 3 0 3 0 0 5 0 5 -3 0 -3 0 0 -5z"/>
  <path d="M712 424.1 l0 -5.1 3.1 0 3 0 -0.3 4.8 -0.3 4.7 -2.7 0.3 -2.8 0.3 0 -5z"/>
  <path d="M722 424 l0 -5 3 0 3 0 0 5 0 5 -3 0 -3 0 0 -5z"/>
  <path d="M732 424.1 l0 -5.1 3.1 0 3 0 -0.3 4.8 -0.3 4.7 -2.7 0.3 -2.8 0.3 0 -5z"/>
  <path d="M742 424 l0 -5 3 0 3 0 0 5 0 5 -3 0 -3 0 0 -5z"/>
  <path d="M752 424.1 l0 -5.1 3.1 0 3 0 -0.3 4.8 -0.3 4.7 -2.7 0.3 -2.8 0.3 0 -5z"/>
  <path d="M762 424 l0 -5 3 0 3 0 0 5 0 5 -3 0 -3 0 0 -5z"/>
  <path d="M772 424.1 l0 -5.1 3.1 0 3 0 -0.3 4.8 -0.3 4.7 -2.7 0.3 -2.8 0.3 0 -5z"/>
  <path d="M782 424 l0 -5 3 0 3 0 0 5 0 5 -3 0 -3 0 0 -5z"/>
  <path d="M792 424.1 l0 -5.1 3.1 0 3 0 -0.3 4.8 -0.3 4.7 -2.7 0.3 -2.8 0.3 0 -5z"/>
  <path d="M802 424 l0 -5 3 0 3 0 0 5 0 5 -3 0 -3 0 0 -5z"/>
  <path d="M32 392.1 l0 -5.1 3.1 0 3 0 -0.3 4.8 -0.3 4.7 -2.7 0.3 -2.8 0.3 0 -5z"/>
  <path d="M422 392.1 l0 -5.1 3.1 0 3 0 -0.3 4.8 -0.3 4.7 -2.7 0.3 -2.8 0.3 0 -5z"/>
  <path d="M432 392.1 l0 -5.1 3.1 0 3 0 -0.3 4.8 -0.3 4.7 -2.7 0.3 -2.8 0.3 0 -5z"/>
  <path d="M442 392.1 l0 -5.1 3.1 0 3 0 -0.3 4.8 -0.3 4.7 -2.7 0.3 -2.8 0.3 0 -5z"/>
  <path d="M452 392.1 l0 -5.1 3.1 0 3 0 -0.3 4.8 -0.3 4.7 -2.7 0.3 -2.8 0.3 0 -5z"/>
  <path d="M462 392.1 l0 -5.1 3.1 0 3 0 -0.3 4.8 -0.3 4.7 -2.7 0.3 -2.8 0.3 0 -5z"/>
  <path d="M472 392.1 l0 -5.1 3.1 0 3 0 -0.3 4.8 -0.3 4.7 -2.7 0.3 -2.8 0.3 0 -5z"/>
  <path d="M482 392.1 l0 -5.1 3.1 0 3 0 -0.3 4.8 -0.3 4.7 -2.7 0.3 -2.8 0.3 0 -5z"/>
  <path d="M492 392.1 l0 -5.1 3.1 0 3 0 -0.3 4.8 -0.3 4.7 -2.7 0.3 -2.8 0.3 0 -5z"/>
  <path d="M502 392 l0 -5 3 0 3 0 0 5 0 5 -3 0 -3 0 0 -5z"/>
  <path d="M512 392.1 l0 -5.1 3.1 0 3 0 -0.3 4.8 -0.3 4.7 -2.7 0.3 -2.8 0.3 0 -5z"/>
  <path d="M522 392.1 l0 -5.1 3.1 0 3 0 -0.3 4.8 -0.3 4.7 -2.7 0.3 -2.8 0.3 0 -5z"/>
  <path d="M532 392.1 l0 -5.1 3.1 0 3 0 -0.3 4.8 -0.3 4.7 -2.7 0.3 -2.8 0.3 0 -5z"/>
  <path d="M542 392.1 l0 -5.1 3.1 0 3 0 -0.3 4.8 -0.3 4.7 -2.7 0.3 -2.8 0.3 0 -5z"/>
  <path d="M552 392.1 l0 -5.1 3.1 0 3 0 -0.3 4.8 -0.3 4.7 -2.7 0.3 -2.8 0.3 0 -5z"/>
  <path d="M562.7 396.4 l-0.7 -0.7 0 -4.4 0 -4.3 3.1 0 3 0 -0.3 4.8 -0.3 4.7 -2 0.3 -2.1 0.3 -0.7 -0.7z"/>
  <path d="M572 392.1 l0 -5.1 3.1 0 3 0 -0.3 4.8 -0.3 4.7 -2.7 0.3 -2.8 0.3 0 -5z"/>
  <path d="M582 392 l0 -5 3 0 3 0 0 5 0 5 -3 0 -3 0 0 -5z"/>
  <path d="M592 392.1 l0 -5.1 3.1 0 3 0 -0.3 4.8 -0.3 4.7 -2.7 0.3 -2.8 0.3 0 -5z"/>
  <path d="M602 392.1 l0 -5.1 3.1 0 3 0 -0.3 4.8 -0.3 4.7 -2.7 0.3 -2.8 0.3 0 -5z"/>
  <path d="M612 392.1 l0 -5.1 3.1 0 3 0 -0.3 4.8 -0.3 4.7 -2.7 0.3 -2.8 0.3 0 -5z"/>
  <path d="M622 392.1 l0 -5.1 3.1 0 3 0 -0.3 4.8 -0.3 4.7 -2.7 0.3 -2.8 0.3 0 -5z"/>
  <path d="M632 392.1 l0 -5.1 3.1 0 3 0 -0.3 4.8 -0.3 4.7 -2.7 0.3 -2.8 0.3 0 -5z"/>
  <path d="M642 392.1 l0 -5.1 3.1 0 3 0 -0.3 4.8 -0.3 4.7 -2.7 0.3 -2.8 0.3 0 -5z"/>
  <path d="M652 392.1 l0 -5.1 3.1 0 3 0 -0.3 4.8 -0.3 4.7 -2.7 0.3 -2.8 0.3 0 -5z"/>
  <path d="M662 392.1 l0 -5.1 3.1 0 3 0 -0.3 4.8 -0.3 4.7 -2.7 0.3 -2.8 0.3 0 -5z"/>
  <path d="M672 392.1 l0 -5.1 3.1 0 3 0 -0.3 4.8 -0.3 4.7 -2.7 0.3 -2.8 0.3 0 -5z"/>
  <path d="M682 392.1 l0 -5.1 3.1 0 3 0 -0.3 4.8 -0.3 4.7 -2.7 0.3 -2.8 0.3 0 -5z"/>
  <path d="M692 392.1 l0 -5.1 3.1 0 3 0 -0.3 4.8 -0.3 4.7 -2.7 0.3 -2.8 0.3 0 -5z"/>
  <path d="M702 392.1 l0 -5.1 3.1 0 3 0 -0.3 4.8 -0.3 4.7 -2.7 0.3 -2.8 0.3 0 -5z"/>
  <path d="M712 392.1 l0 -5.1 3.1 0 3 0 -0.3 4.8 -0.3 4.7 -2.7 0.3 -2.8 0.3 0 -5z"/>
  <path d="M722 392.1 l0 -5.1 3.1 0 3 0 -0.3 4.8 -0.3 4.7 -2.7 0.3 -2.8 0.3 0 -5z"/>
  <path d="M732 392.1 l0 -5.1 3.1 0 3 0 -0.3 4.8 -0.3 4.7 -2.7 0.3 -2.8 0.3 0 -5z"/>
  <path d="M742 392.1 l0 -5.1 3.1 0 3 0 -0.3 4.8 -0.3 4.7 -2.7 0.3 -2.8 0.3 0 -5z"/>
  <path d="M752 392.1 l0 -5.1 3.1 0 3 0 -0.3 4.8 -0.3 4.7 -2.7 0.3 -2.8 0.3 0 -5z"/>
  <path d="M762 392.1 l0 -5.1 3.1 0 3 0 -0.3 4.8 -0.3 4.7 -2.7 0.3 -2.8 0.3 0 -5z"/>
  <path d="M772 392.1 l0 -5.1 3.1 0 3 0 -0.3 4.8 -0.3 4.7 -2.7 0.3 -2.8 0.3 0 -5z"/>
  <path d="M782 392.1 l0 -5.1 3.1 0 3 0 -0.3 4.8 -0.3 4.7 -2.7 0.3 -2.8 0.3 0 -5z"/>
  <path d="M792 392.1 l0 -5.1 3.1 0 3 0 -0.3 4.8 -0.3 4.7 -2.7 0.3 -2.8 0.3 0 -5z"/>
  <path d="M802.7 396.4 l-0.7 -0.7 0 -4.4 0 -4.3 3.1 0 3 0 -0.3 4.8 -0.3 4.7 -2 0.3 -2.1 0.3 -0.7 -0.7z"/>
  <path d="M402 364 l0 -5 3 0 3 0 0 5 0 5 -3 0 -3 0 0 -5z"/>
  <path d="M412 364 l0 -5 3 0 3 0 0 5 0 5 -3 0 -3 0 0 -5z"/>
  <path d="M422 364 l0 -5 3 0 3 0 0 5 0 5 -3 0 -3 0 0 -5z"/>
  <path d="M432 364 l0 -5 3 0 3 0 0 5 0 5 -3 0 -3 0 0 -5z"/>
  <path d="M442 364 l0 -5 3 0 3 0 0 5 0 5 -3 0 -3 0 0 -5z"/>
  <path d="M452 364 l0 -5 3 0 3 0 0 5 0 5 -3 0 -3 0 0 -5z"/>
  <path d="M462 364 l0 -5 3 0 3 0 0 5 0 5 -3 0 -3 0 0 -5z"/>
  <path d="M472 364 l0 -5 3 0 3 0 0 5 0 5 -3 0 -3 0 0 -5z"/>
  <path d="M482 364 l0 -5 3 0 3 0 0 5 0 5 -3 0 -3 0 0 -5z"/>
  <path d="M492 364 l0 -5 3 0 3 0 0 5 0 5 -3 0 -3 0 0 -5z"/>
  <path d="M502 364 l0 -5 3 0 3 0 0 5 0 5 -3 0 -3 0 0 -5z"/>
  <path d="M512 364 l0 -5 3 0 3 0 0 5 0 5 -3 0 -3 0 0 -5z"/>
  <path d="M522 364 l0 -5 3 0 3 0 0 5 0 5 -3 0 -3 0 0 -5z"/>
  <path d="M532 364 l0 -5 3 0 3 0 0 5 0 5 -3 0 -3 0 0 -5z"/>
  <path d="M542 364 l0 -5 3 0 3 0 0 5 0 5 -3 0 -3 0 0 -5z"/>
  <path d="M552 364 l0 -5 3 0 3 0 0 5 0 5 -3 0 -3 0 0 -5z"/>
  <path d="M562 364 l0 -5 3 0 3 0 0 5 0 5 -3 0 -3 0 0 -5z"/>
  <path d="M572 364 l0 -5 3 0 3 0 0 5 0 5 -3 0 -3 0 0 -5z"/>
  <path d="M582 364 l0 -5 3 0 3 0 0 5 0 5 -3 0 -3 0 0 -5z"/>
  <path d="M592 364 l0 -5 3 0 3 0 0 5 0 5 -3 0 -3 0 0 -5z"/>
  <path d="M602 364 l0 -5 3 0 3 0 0 5 0 5 -3 0 -3 0 0 -5z"/>
  <path d="M612 364 l0 -5 3 0 3 0 0 5 0 5 -3 0 -3 0 0 -5z"/>
  <path d="M622 364 l0 -5 3 0 3 0 0 5 0 5 -3 0 -3 0 0 -5z"/>
  <path d="M632 364 l0 -5 3 0 3 0 0 5 0 5 -3 0 -3 0 0 -5z"/>
  <path d="M642 364 l0 -5 3 0 3 0 0 5 0 5 -3 0 -3 0 0 -5z"/>
  <path d="M652 364 l0 -5 3 0 3 0 0 5 0 5 -3 0 -3 0 0 -5z"/>
  <path d="M662 364 l0 -5 3 0 3 0 0 5 0 5 -3 0 -3 0 0 -5z"/>
  <path d="M672 364 l0 -5 3 0 3 0 0 5 0 5 -3 0 -3 0 0 -5z"/>
  <path d="M682 364 l0 -5 3 0 3 0 0 5 0 5 -3 0 -3 0 0 -5z"/>
  <path d="M692 364 l0 -5 3 0 3 0 0 5 0 5 -3 0 -3 0 0 -5z"/>
  <path d="M702 364 l0 -5 3 0 3 0 0 5 0 5 -3 0 -3 0 0 -5z"/>
  <path d="M712 364 l0 -5 3 0 3 0 0 5 0 5 -3 0 -3 0 0 -5z"/>
  <path d="M722 364 l0 -5 3 0 3 0 0 5 0 5 -3 0 -3 0 0 -5z"/>
  <path d="M732 364 l0 -5 3 0 3 0 0 5 0 5 -3 0 -3 0 0 -5z"/>
  <path d="M742 364 l0 -5 3 0 3 0 0 5 0 5 -3 0 -3 0 0 -5z"/>
  <path d="M752 364 l0 -5 3 0 3 0 0 5 0 5 -3 0 -3 0 0 -5z"/>
  <path d="M762 364 l0 -5 3 0 3 0 0 5 0 5 -3 0 -3 0 0 -5z"/>
  <path d="M772 364 l0 -5 3 0 3 0 0 5 0 5 -3 0 -3 0 0 -5z"/>
  <path d="M782 364 l0 -5 3 0 3 0 0 5 0 5 -3 0 -3 0 0 -5z"/>
  <path d="M792 364 l0 -5 3 0 3 0 0 5 0 5 -3 0 -3 0 0 -5z"/>
  <path d="M802 364 l0 -5 3 0 3 0 0 5 0 5 -3 0 -3 0 0 -5z"/>
  <path d="M312 332.1 l0 -5.1 3.1 0 3 0 -0.3 4.8 -0.3 4.7 -2.7 0.3 -2.8 0.3 0 -5z"/>
  <path d="M322 332 l0 -5 3 0 3 0 0 5 0 5 -3 0 -3 0 0 -5z"/>
  <path d="M332 332.1 l0 -5.1 3.1 0 3 0 -0.3 4.8 -0.3 4.7 -2.7 0.3 -2.8 0.3 0 -5z"/>
  <path d="M342 332 l0 -5 3 0 3 0 0 5 0 5 -3 0 -3 0 0 -5z"/>
  <path d="M352 332.1 l0 -5.1 3.1 0 3 0 -0.3 4.8 -0.3 4.7 -2.7 0.3 -2.8 0.3 0 -5z"/>
  <path d="M362 332 l0 -5 3 0 3 0 0 5 0 5 -3 0 -3 0 0 -5z"/>
  <path d="M372 332.1 l0 -5.1 3.1 0 3 0 -0.3 4.8 -0.3 4.7 -2.7 0.3 -2.8 0.3 0 -5z"/>
  <path d="M382 332 l0 -5 3 0 3 0 0 5 0 5 -3 0 -3 0 0 -5z"/>
  <path d="M392 332.1 l0 -5.1 3.1 0 3 0 -0.3 4.8 -0.3 4.7 -2.7 0.3 -2.8 0.3 0 -5z"/>
  <path d="M402 332 l0 -5 3 0 3 0 0 5 0 5 -3 0 -3 0 0 -5z"/>
  <path d="M412 332.1 l0 -5.1 3.1 0 3 0 -0.3 4.8 -0.3 4.7 -2.7 0.3 -2.8 0.3 0 -5z"/>
  <path d="M422 332 l0 -5 3 0 3 0 0 5 0 5 -3 0 -3 0 0 -5z"/>
  <path d="M432 332.1 l0 -5.1 3.1 0 3 0 -0.3 4.8 -0.3 4.7 -2.7 0.3 -2.8 0.3 0 -5z"/>
  <path d="M442 332 l0 -5 3 0 3 0 0 5 0 5 -3 0 -3 0 0 -5z"/>
  <path d="M452 332.1 l0 -5.1 3.1 0 3 0 -0.3 4.8 -0.3 4.7 -2.7 0.3 -2.8 0.3 0 -5z"/>
  <path d="M462 332 l0 -5 3 0 3 0 0 5 0 5 -3 0 -3 0 0 -5z"/>
  <path d="M472 332.1 l0 -5.1 3.1 0 3 0 -0.3 4.8 -0.3 4.7 -2.7 0.3 -2.8 0.3 0 -5z"/>
  <path d="M482 332 l0 -5 3 0 3 0 0 5 0 5 -3 0 -3 0 0 -5z"/>
  <path d="M492 332.1 l0 -5.1 3.1 0 3 0 -0.3 4.8 -0.3 4.7 -2.7 0.3 -2.8 0.3 0 -5z"/>
  <path d="M502 332 l0 -5 3 0 3 0 0 5 0 5 -3 0 -3 0 0 -5z"/>
  <path d="M512 332 l0 -5 3 0 3 0 0 5 0 5 -3 0 -3 0 0 -5z"/>
  <path d="M522 332 l0 -5 3 0 3 0 0 5 0 5 -3 0 -3 0 0 -5z"/>
  <path d="M532 332.1 l0 -5.1 3.1 0 3 0 -0.3 4.8 -0.3 4.7 -2.7 0.3 -2.8 0.3 0 -5z"/>
  <path d="M542 332 l0 -5 3 0 3 0 0 5 0 5 -3 0 -3 0 0 -5z"/>
  <path d="M552 332.1 l0 -5.1 3.1 0 3 0 -0.3 4.8 -0.3 4.7 -2.7 0.3 -2.8 0.3 0 -5z"/>
  <path d="M562 332 l0 -5 3 0 3 0 0 5 0 5 -3 0 -3 0 0 -5z"/>
  <path d="M572 332.1 l0 -5.1 3.1 0 3 0 -0.3 4.8 -0.3 4.7 -2.7 0.3 -2.8 0.3 0 -5z"/>
  <path d="M582 332 l0 -5 3 0 3 0 0 5 0 5 -3 0 -3 0 0 -5z"/>
  <path d="M592 332 l0 -5 3 0 3 0 0 5 0 5 -3 0 -3 0 0 -5z"/>
  <path d="M602 332 l0 -5 3 0 3 0 0 5 0 5 -3 0 -3 0 0 -5z"/>
  <path d="M612 332.1 l0 -5.1 3.1 0 3 0 -0.3 4.8 -0.3 4.7 -2.7 0.3 -2.8 0.3 0 -5z"/>
  <path d="M622 332 l0 -5 3 0 3 0 0 5 0 5 -3 0 -3 0 0 -5z"/>
  <path d="M632 332.1 l0 -5.1 3.1 0 3 0 -0.3 4.8 -0.3 4.7 -2.7 0.3 -2.8 0.3 0 -5z"/>
  <path d="M642 332 l0 -5 3 0 3 0 0 5 0 5 -3 0 -3 0 0 -5z"/>
  <path d="M652 332.1 l0 -5.1 3.1 0 3 0 -0.3 4.8 -0.3 4.7 -2.7 0.3 -2.8 0.3 0 -5z"/>
  <path d="M662 332 l0 -5 3 0 3 0 0 5 0 5 -3 0 -3 0 0 -5z"/>
  <path d="M672 332.1 l0 -5.1 3.1 0 3 0 -0.3 4.8 -0.3 4.7 -2.7 0.3 -2.8 0.3 0 -5z"/>
  <path d="M682 332 l0 -5 3 0 3 0 0 5 0 5 -3 0 -3 0 0 -5z"/>
  <path d="M692 332.1 l0 -5.1 3.1 0 3 0 -0.3 4.8 -0.3 4.7 -2.7 0.3 -2.8 0.3 0 -5z"/>
  <path d="M702 332 l0 -5 3 0 3 0 0 5 0 5 -3 0 -3 0 0 -5z"/>
  <path d="M712 332.1 l0 -5.1 3.1 0 3 0 -0.3 4.8 -0.3 4.7 -2.7 0.3 -2.8 0.3 0 -5z"/>
  <path d="M722 332 l0 -5 3 0 3 0 0 5 0 5 -3 0 -3 0 0 -5z"/>
  <path d="M732 332.1 l0 -5.1 3.1 0 3 0 -0.3 4.8 -0.3 4.7 -2.7 0.3 -2.8 0.3 0 -5z"/>
  <path d="M742 332 l0 -5 3 0 3 0 0 5 0 5 -3 0 -3 0 0 -5z"/>
  <path d="M752 332.1 l0 -5.1 3.1 0 3 0 -0.3 4.8 -0.3 4.7 -2.7 0.3 -2.8 0.3 0 -5z"/>
  <path d="M762 332 l0 -5 3 0 3 0 0 5 0 5 -3 0 -3 0 0 -5z"/>
  <path d="M772 332.1 l0 -5.1 3.1 0 3 0 -0.3 4.8 -0.3 4.7 -2.7 0.3 -2.8 0.3 0 -5z"/>
  <path d="M782 332 l0 -5 3 0 3 0 0 5 0 5 -3 0 -3 0 0 -5z"/>
  <path d="M792 332.1 l0 -5.1 3.1 0 3 0 -0.3 4.8 -0.3 4.7 -2.7 0.3 -2.8 0.3 0 -5z"/>
  <path d="M802 332 l0 -5 3 0 3 0 0 5 0 5 -3 0 -3 0 0 -5z"/>
  <path d="M0 207 l0 -100 5 0 5 0 0 -7.5 0 -7.5 5 0 5 0 0 -7.5 0 -7.5 5 0 5 0 0 -8 0 -8 5 0 5 0 0 -7.5 0 -7.5 5 0 5 0 0 -7.5 0 -7.5 65 0 65 0 0 7.5 0 7.5 -5 0 -5 0 0 7.5 0 7.5 -55 0 -55 0 0 8 0 8 -5 0 -5 0 0 7.5 0 7.5 -5 0 -5 0 0 7.5 0 7.5 -5 0 -5 0 0 8 0 8 -5 0 -5 0 0 84 0 84 -5 0 -5 0 0 8 0 8 -5 0 -5 0 0 -100z"/>
  <path d="M332 300.1 l0 -5.1 3.1 0 3 0 -0.3 4.8 -0.3 4.7 -2.7 0.3 -2.8 0.3 0 -5z"/>
  <path d="M342 300.1 l0 -5.1 3.1 0 3 0 -0.3 4.8 -0.3 4.7 -2.7 0.3 -2.8 0.3 0 -5z"/>
  <path d="M352 300.1 l0 -5.1 3.1 0 3 0 -0.3 4.8 -0.3 4.7 -2.7 0.3 -2.8 0.3 0 -5z"/>
  <path d="M362 300.1 l0 -5.1 3.1 0 3 0 -0.3 4.8 -0.3 4.7 -2.7 0.3 -2.8 0.3 0 -5z"/>
  <path d="M372 300.1 l0 -5.1 3.1 0 3 0 -0.3 4.8 -0.3 4.7 -2.7 0.3 -2.8 0.3 0 -5z"/>
  <path d="M382 300 l0 -5 3 0 3 0 0 5 0 5 -3 0 -3 0 0 -5z"/>
  <path d="M392 300.1 l0 -5.1 3.1 0 3 0 -0.3 4.8 -0.3 4.7 -2.7 0.3 -2.8 0.3 0 -5z"/>
  <path d="M402 300.1 l0 -5.1 3.1 0 3 0 -0.3 4.8 -0.3 4.7 -2.7 0.3 -2.8 0.3 0 -5z"/>
  <path d="M412 300.1 l0 -5.1 3.1 0 3 0 -0.3 4.8 -0.3 4.7 -2.7 0.3 -2.8 0.3 0 -5z"/>
  <path d="M422 300.1 l0 -5.1 3.1 0 3 0 -0.3 4.8 -0.3 4.7 -2.7 0.3 -2.8 0.3 0 -5z"/>
  <path d="M432 300.1 l0 -5.1 3.1 0 3 0 -0.3 4.8 -0.3 4.7 -2.7 0.3 -2.8 0.3 0 -5z"/>
  <path d="M442 300 l0 -5 3 0 3 0 0 5 0 5 -3 0 -3 0 0 -5z"/>
  <path d="M452 300.1 l0 -5.1 3.1 0 3 0 -0.3 4.8 -0.3 4.7 -2.7 0.3 -2.8 0.3 0 -5z"/>
  <path d="M462 300 l0 -5 3 0 3 0 0 5 0 5 -3 0 -3 0 0 -5z"/>
  <path d="M472 300.1 l0 -5.1 3.1 0 3 0 -0.3 4.8 -0.3 4.7 -2.7 0.3 -2.8 0.3 0 -5z"/>
  <path d="M482 300 l0 -5 3 0 3 0 0 5 0 5 -3 0 -3 0 0 -5z"/>
  <path d="M492 300.1 l0 -5.1 3.1 0 3 0 -0.3 4.8 -0.3 4.7 -2.7 0.3 -2.8 0.3 0 -5z"/>
  <path d="M502 300 l0 -5 3 0 3 0 0 5 0 5 -3 0 -3 0 0 -5z"/>
  <path d="M512 300.1 l0 -5.1 3.1 0 3 0 -0.3 4.8 -0.3 4.7 -2.7 0.3 -2.8 0.3 0 -5z"/>
  <path d="M522 300.1 l0 -5.1 3.1 0 3 0 -0.3 4.8 -0.3 4.7 -2.7 0.3 -2.8 0.3 0 -5z"/>
  <path d="M532 300.1 l0 -5.1 3.1 0 3 0 -0.3 4.8 -0.3 4.7 -2.7 0.3 -2.8 0.3 0 -5z"/>
  <path d="M542 300 l0 -5 3 0 3 0 0 5 0 5 -3 0 -3 0 0 -5z"/>
  <path d="M552 300.1 l0 -5.1 3.1 0 3 0 -0.3 4.8 -0.3 4.7 -2.7 0.3 -2.8 0.3 0 -5z"/>
  <path d="M562 300.1 l0 -5.1 3.1 0 3 0 -0.3 4.8 -0.3 4.7 -2.7 0.3 -2.8 0.3 0 -5z"/>
  <path d="M572 300.1 l0 -5.1 3.1 0 3 0 -0.3 4.8 -0.3 4.7 -2.7 0.3 -2.8 0.3 0 -5z"/>
  <path d="M582 300.1 l0 -5.1 3.1 0 3 0 -0.3 4.8 -0.3 4.7 -2.7 0.3 -2.8 0.3 0 -5z"/>
  <path d="M592 300.1 l0 -5.1 3.1 0 3 0 -0.3 4.8 -0.3 4.7 -2.7 0.3 -2.8 0.3 0 -5z"/>
  <path d="M602 300.1 l0 -5.1 3.1 0 3 0 -0.3 4.8 -0.3 4.7 -2.7 0.3 -2.8 0.3 0 -5z"/>
  <path d="M612 300.1 l0 -5.1 3.1 0 3 0 -0.3 4.8 -0.3 4.7 -2.7 0.3 -2.8 0.3 0 -5z"/>
  <path d="M622 300 l0 -5 3 0 3 0 0 5 0 5 -3 0 -3 0 0 -5z"/>
  <path d="M632 300.1 l0 -5.1 3.1 0 3 0 -0.3 4.8 -0.3 4.7 -2.7 0.3 -2.8 0.3 0 -5z"/>
  <path d="M642 300 l0 -5 3 0 3 0 0 5 0 5 -3 0 -3 0 0 -5z"/>
  <path d="M652 300.1 l0 -5.1 3.1 0 3 0 -0.3 4.8 -0.3 4.7 -2.7 0.3 -2.8 0.3 0 -5z"/>
  <path d="M662 300.1 l0 -5.1 3.1 0 3 0 -0.3 4.8 -0.3 4.7 -2.7 0.3 -2.8 0.3 0 -5z"/>
  <path d="M672 300.1 l0 -5.1 3.1 0 3 0 -0.3 4.8 -0.3 4.7 -2.7 0.3 -2.8 0.3 0 -5z"/>
  <path d="M682 300.1 l0 -5.1 3.1 0 3 0 -0.3 4.8 -0.3 4.7 -2.7 0.3 -2.8 0.3 0 -5z"/>
  <path d="M692 300.1 l0 -5.1 3.1 0 3 0 -0.3 4.8 -0.3 4.7 -2.7 0.3 -2.8 0.3 0 -5z"/>
  <path d="M702 300 l0 -5 3 0 3 0 0 5 0 5 -3 0 -3 0 0 -5z"/>
  <path d="M712 300.1 l0 -5.1 3.1 0 3 0 -0.3 4.8 -0.3 4.7 -2.7 0.3 -2.8 0.3 0 -5z"/>
  <path d="M722 300.1 l0 -5.1 3.1 0 3 0 -0.3 4.8 -0.3 4.7 -2.7 0.3 -2.8 0.3 0 -5z"/>
  <path d="M732 300.1 l0 -5.1 3.1 0 3 0 -0.3 4.8 -0.3 4.7 -2.7 0.3 -2.8 0.3 0 -5z"/>
  <path d="M742 300.1 l0 -5.1 3.1 0 3 0 -0.3 4.8 -0.3 4.7 -2.7 0.3 -2.8 0.3 0 -5z"/>
  <path d="M752 300.1 l0 -5.1 3.1 0 3 0 -0.3 4.8 -0.3 4.7 -2.7 0.3 -2.8 0.3 0 -5z"/>
  <path d="M762 300.1 l0 -5.1 3.1 0 3 0 -0.3 4.8 -0.3 4.7 -2.7 0.3 -2.8 0.3 0 -5z"/>
  <path d="M772 300.1 l0 -5.1 3.1 0 3 0 -0.3 4.8 -0.3 4.7 -2.7 0.3 -2.8 0.3 0 -5z"/>
  <path d="M782 300.1 l0 -5.1 3.1 0 3 0 -0.3 4.8 -0.3 4.7 -2.7 0.3 -2.8 0.3 0 -5z"/>
  <path d="M792 300.1 l0 -5.1 3.1 0 3 0 -0.3 4.8 -0.3 4.7 -2.7 0.3 -2.8 0.3 0 -5z"/>
  <path d="M802 300.1 l0 -5.1 3.1 0 3 0 -0.3 4.8 -0.3 4.7 -2.7 0.3 -2.8 0.3 0 -5z"/>
  <path d="M342 272 l0 -5 3 0 3 0 0 5 0 5 -3 0 -3 0 0 -5z"/>
  <path d="M352 272 l0 -5 3 0 3 0 0 5 0 5 -3 0 -3 0 0 -5z"/>
  <path d="M362 272 l0 -5 3 0 3 0 0 5 0 5 -3 0 -3 0 0 -5z"/>
  <path d="M372 272 l0 -5 3 0 3 0 0 5 0 5 -3 0 -3 0 0 -5z"/>
  <path d="M382 272 l0 -5 3 0 3 0 0 5 0 5 -3 0 -3 0 0 -5z"/>
  <path d="M392 272 l0 -5 3 0 3 0 0 5 0 5 -3 0 -3 0 0 -5z"/>
  <path d="M402 272 l0 -5 3 0 3 0 0 5 0 5 -3 0 -3 0 0 -5z"/>
  <path d="M412 272 l0 -5 3 0 3 0 0 5 0 5 -3 0 -3 0 0 -5z"/>
  <path d="M422 272 l0 -5 3 0 3 0 0 5 0 5 -3 0 -3 0 0 -5z"/>
  <path d="M432 272 l0 -5 3 0 3 0 0 5 0 5 -3 0 -3 0 0 -5z"/>
  <path d="M442 272 l0 -5 3 0 3 0 0 5 0 5 -3 0 -3 0 0 -5z"/>
  <path d="M452 272 l0 -5 3 0 3 0 0 5 0 5 -3 0 -3 0 0 -5z"/>
  <path d="M462 272 l0 -5 3 0 3 0 0 5 0 5 -3 0 -3 0 0 -5z"/>
  <path d="M472 272 l0 -5 3 0 3 0 0 5 0 5 -3 0 -3 0 0 -5z"/>
  <path d="M482 272 l0 -5 3 0 3 0 0 5 0 5 -3 0 -3 0 0 -5z"/>
  <path d="M492 272 l0 -5 3 0 3 0 0 5 0 5 -3 0 -3 0 0 -5z"/>
  <path d="M502 272 l0 -5 3 0 3 0 0 5 0 5 -3 0 -3 0 0 -5z"/>
  <path d="M512 272 l0 -5 3 0 3 0 0 5 0 5 -3 0 -3 0 0 -5z"/>
  <path d="M522 272 l0 -5 3 0 3 0 0 5 0 5 -3 0 -3 0 0 -5z"/>
  <path d="M532 272 l0 -5 3 0 3 0 0 5 0 5 -3 0 -3 0 0 -5z"/>
  <path d="M542 272 l0 -5 3 0 3 0 0 5 0 5 -3 0 -3 0 0 -5z"/>
  <path d="M552 272 l0 -5 3 0 3 0 0 5 0 5 -3 0 -3 0 0 -5z"/>
  <path d="M562 272 l0 -5 3 0 3 0 0 5 0 5 -3 0 -3 0 0 -5z"/>
  <path d="M572 272 l0 -5 3 0 3 0 0 5 0 5 -3 0 -3 0 0 -5z"/>
  <path d="M582 272 l0 -5 3 0 3 0 0 5 0 5 -3 0 -3 0 0 -5z"/>
  <path d="M592 272 l0 -5 3 0 3 0 0 5 0 5 -3 0 -3 0 0 -5z"/>
  <path d="M602 272 l0 -5 3 0 3 0 0 5 0 5 -3 0 -3 0 0 -5z"/>
  <path d="M612 272 l0 -5 3 0 3 0 0 5 0 5 -3 0 -3 0 0 -5z"/>
  <path d="M622 272 l0 -5 3 0 3 0 0 5 0 5 -3 0 -3 0 0 -5z"/>
  <path d="M632 272 l0 -5 3 0 3 0 0 5 0 5 -3 0 -3 0 0 -5z"/>
  <path d="M642 272 l0 -5 3 0 3 0 0 5 0 5 -3 0 -3 0 0 -5z"/>
  <path d="M652 272 l0 -5 3 0 3 0 0 5 0 5 -3 0 -3 0 0 -5z"/>
  <path d="M662 272 l0 -5 3 0 3 0 0 5 0 5 -3 0 -3 0 0 -5z"/>
  <path d="M672 272 l0 -5 3 0 3 0 0 5 0 5 -3 0 -3 0 0 -5z"/>
  <path d="M682 272 l0 -5 3 0 3 0 0 5 0 5 -3 0 -3 0 0 -5z"/>
  <path d="M692 272 l0 -5 3 0 3 0 0 5 0 5 -3 0 -3 0 0 -5z"/>
  <path d="M702 272 l0 -5 3 0 3 0 0 5 0 5 -3 0 -3 0 0 -5z"/>
  <path d="M712 272 l0 -5 3 0 3 0 0 5 0 5 -3 0 -3 0 0 -5z"/>
  <path d="M722 272 l0 -5 3 0 3 0 0 5 0 5 -3 0 -3 0 0 -5z"/>
  <path d="M732 272 l0 -5 3 0 3 0 0 5 0 5 -3 0 -3 0 0 -5z"/>
  <path d="M742 272 l0 -5 3 0 3 0 0 5 0 5 -3 0 -3 0 0 -5z"/>
  <path d="M752 272 l0 -5 3 0 3 0 0 5 0 5 -3 0 -3 0 0 -5z"/>
  <path d="M762 272 l0 -5 3 0 3 0 0 5 0 5 -3 0 -3 0 0 -5z"/>
  <path d="M772 272 l0 -5 3 0 3 0 0 5 0 5 -3 0 -3 0 0 -5z"/>
  <path d="M782 272 l0 -5 3 0 3 0 0 5 0 5 -3 0 -3 0 0 -5z"/>
  <path d="M792 272 l0 -5 3 0 3 0 0 5 0 5 -3 0 -3 0 0 -5z"/>
  <path d="M802 272 l0 -5 3 0 3 0 0 5 0 5 -3 0 -3 0 0 -5z"/>
  <path d="M32 240 l0 -5 3 0 3 0 0 5 0 5 -3 0 -3 0 0 -5z"/>
  <path d="M42 240 l0 -5 3 0 3 0 0 5 0 5 -3 0 -3 0 0 -5z"/>
  <path d="M342 240 l0 -5 3 0 3 0 0 5 0 5 -3 0 -3 0 0 -5z"/>
  <path d="M352 240.1 l0 -5.1 3.1 0 3 0 -0.3 4.8 -0.3 4.7 -2.7 0.3 -2.8 0.3 0 -5z"/>
  <path d="M362 240 l0 -5 3 0 3 0 0 5 0 5 -3 0 -3 0 0 -5z"/>
  <path d="M372 240.1 l0 -5.1 3.1 0 3 0 -0.3 4.8 -0.3 4.7 -2.7 0.3 -2.8 0.3 0 -5z"/>
  <path d="M382 240 l0 -5 3 0 3 0 0 5 0 5 -3 0 -3 0 0 -5z"/>
  <path d="M392 240.1 l0 -5.1 3.1 0 3 0 -0.3 4.8 -0.3 4.7 -2.7 0.3 -2.8 0.3 0 -5z"/>
  <path d="M402 240 l0 -5 3 0 3 0 0 5 0 5 -3 0 -3 0 0 -5z"/>
  <path d="M412 240.1 l0 -5.1 3.1 0 3 0 -0.3 4.8 -0.3 4.7 -2.7 0.3 -2.8 0.3 0 -5z"/>
  <path d="M422 240 l0 -5 3 0 3 0 0 5 0 5 -3 0 -3 0 0 -5z"/>
  <path d="M432 240.1 l0 -5.1 3.1 0 3 0 -0.3 4.8 -0.3 4.7 -2.7 0.3 -2.8 0.3 0 -5z"/>
  <path d="M442 240 l0 -5 3 0 3 0 0 5 0 5 -3 0 -3 0 0 -5z"/>
  <path d="M452 240.1 l0 -5.1 3.1 0 3 0 -0.3 4.8 -0.3 4.7 -2.7 0.3 -2.8 0.3 0 -5z"/>
  <path d="M462 240 l0 -5 3 0 3 0 0 5 0 5 -3 0 -3 0 0 -5z"/>
  <path d="M472 240 l0 -5 3 0 3 0 0 5 0 5 -3 0 -3 0 0 -5z"/>
  <path d="M482 240 l0 -5 3 0 3 0 0 5 0 5 -3 0 -3 0 0 -5z"/>
  <path d="M492 240.1 l0 -5.1 3.1 0 3 0 -0.3 4.8 -0.3 4.7 -2.7 0.3 -2.8 0.3 0 -5z"/>
  <path d="M502 240 l0 -5 3 0 3 0 0 5 0 5 -3 0 -3 0 0 -5z"/>
  <path d="M512 240.1 l0 -5.1 3.1 0 3 0 -0.3 4.8 -0.3 4.7 -2.7 0.3 -2.8 0.3 0 -5z"/>
  <path d="M522 240 l0 -5 3 0 3 0 0 5 0 5 -3 0 -3 0 0 -5z"/>
  <path d="M532 240.1 l0 -5.1 3.1 0 3 0 -0.3 4.8 -0.3 4.7 -2.7 0.3 -2.8 0.3 0 -5z"/>
  <path d="M542 240 l0 -5 3 0 3 0 0 5 0 5 -3 0 -3 0 0 -5z"/>
  <path d="M552 240.1 l0 -5.1 3.1 0 3 0 -0.3 4.8 -0.3 4.7 -2.7 0.3 -2.8 0.3 0 -5z"/>
  <path d="M562 240 l0 -5 3 0 3 0 0 5 0 5 -3 0 -3 0 0 -5z"/>
  <path d="M572 240.1 l0 -5.1 3.1 0 3 0 -0.3 4.8 -0.3 4.7 -2.7 0.3 -2.8 0.3 0 -5z"/>
  <path d="M582 240 l0 -5 3 0 3 0 0 5 0 5 -3 0 -3 0 0 -5z"/>
  <path d="M592 240.1 l0 -5.1 3.1 0 3 0 -0.3 4.8 -0.3 4.7 -2.7 0.3 -2.8 0.3 0 -5z"/>
  <path d="M602 240 l0 -5 3 0 3 0 0 5 0 5 -3 0 -3 0 0 -5z"/>
  <path d="M612 240.1 l0 -5.1 3.1 0 3 0 -0.3 4.8 -0.3 4.7 -2.7 0.3 -2.8 0.3 0 -5z"/>
  <path d="M622 240 l0 -5 3 0 3 0 0 5 0 5 -3 0 -3 0 0 -5z"/>
  <path d="M632 240 l0 -5 3 0 3 0 0 5 0 5 -3 0 -3 0 0 -5z"/>
  <path d="M642 240 l0 -5 3 0 3 0 0 5 0 5 -3 0 -3 0 0 -5z"/>
  <path d="M652 240.1 l0 -5.1 3.1 0 3 0 -0.3 4.8 -0.3 4.7 -2.7 0.3 -2.8 0.3 0 -5z"/>
  <path d="M662 240 l0 -5 3 0 3 0 0 5 0 5 -3 0 -3 0 0 -5z"/>
  <path d="M672 240.1 l0 -5.1 3.1 0 3 0 -0.3 4.8 -0.3 4.7 -2.7 0.3 -2.8 0.3 0 -5z"/>
  <path d="M682 240 l0 -5 3 0 3 0 0 5 0 5 -3 0 -3 0 0 -5z"/>
  <path d="M692 240.1 l0 -5.1 3.1 0 3 0 -0.3 4.8 -0.3 4.7 -2.7 0.3 -2.8 0.3 0 -5z"/>
  <path d="M702 240 l0 -5 3 0 3 0 0 5 0 5 -3 0 -3 0 0 -5z"/>
  <path d="M712 240.1 l0 -5.1 3.1 0 3 0 -0.3 4.8 -0.3 4.7 -2.7 0.3 -2.8 0.3 0 -5z"/>
  <path d="M722 240 l0 -5 3 0 3 0 0 5 0 5 -3 0 -3 0 0 -5z"/>
  <path d="M732 240.1 l0 -5.1 3.1 0 3 0 -0.3 4.8 -0.3 4.7 -2.7 0.3 -2.8 0.3 0 -5z"/>
  <path d="M742 240 l0 -5 3 0 3 0 0 5 0 5 -3 0 -3 0 0 -5z"/>
  <path d="M752 240.1 l0 -5.1 3.1 0 3 0 -0.3 4.8 -0.3 4.7 -2.7 0.3 -2.8 0.3 0 -5z"/>
  <path d="M762 240 l0 -5 3 0 3 0 0 5 0 5 -3 0 -3 0 0 -5z"/>
  <path d="M772 240.1 l0 -5.1 3.1 0 3 0 -0.3 4.8 -0.3 4.7 -2.7 0.3 -2.8 0.3 0 -5z"/>
  <path d="M782 240 l0 -5 3 0 3 0 0 5 0 5 -3 0 -3 0 0 -5z"/>
  <path d="M792 240.1 l0 -5.1 3.1 0 3 0 -0.3 4.8 -0.3 4.7 -2.7 0.3 -2.8 0.3 0 -5z"/>
  <path d="M802 240 l0 -5 3 0 3 0 0 5 0 5 -3 0 -3 0 0 -5z"/>
  <path d="M32 208.1 l0 -5.1 3.1 0 3 0 -0.3 4.8 -0.3 4.7 -2.7 0.3 -2.8 0.3 0 -5z"/>
  <path d="M42 208.1 l0 -5.1 3.1 0 3 0 -0.3 4.8 -0.3 4.7 -2.7 0.3 -2.8 0.3 0 -5z"/>
  <path d="M52 208.1 l0 -5.1 3.1 0 3 0 -0.3 4.8 -0.3 4.7 -2.7 0.3 -2.8 0.3 0 -5z"/>
  <path d="M62 208.1 l0 -5.1 3.1 0 3 0 -0.3 4.8 -0.3 4.7 -2.7 0.3 -2.8 0.3 0 -5z"/>
  <path d="M252 208.1 l0 -5.1 3.1 0 3 0 -0.3 4.8 -0.3 4.7 -2.7 0.3 -2.8 0.3 0 -5z"/>
  <path d="M262 208 l0 -5 3 0 3 0 0 5 0 5 -3 0 -3 0 0 -5z"/>
  <path d="M272 208.1 l0 -5.1 3.1 0 3 0 -0.3 4.8 -0.3 4.7 -2.7 0.3 -2.8 0.3 0 -5z"/>
  <path d="M282 208.1 l0 -5.1 3.1 0 3 0 -0.3 4.8 -0.3 4.7 -2.7 0.3 -2.8 0.3 0 -5z"/>
  <path d="M292 208.1 l0 -5.1 3.1 0 3 0 -0.3 4.8 -0.3 4.7 -2.7 0.3 -2.8 0.3 0 -5z"/>
  <path d="M302 208.1 l0 -5.1 3.1 0 3 0 -0.3 4.8 -0.3 4.7 -2.7 0.3 -2.8 0.3 0 -5z"/>
  <path d="M312 208.1 l0 -5.1 3.1 0 3 0 -0.3 4.8 -0.3 4.7 -2.7 0.3 -2.8 0.3 0 -5z"/>
  <path d="M322 208 l0 -5 3 0 3 0 0 5 0 5 -3 0 -3 0 0 -5z"/>
  <path d="M332 208.1 l0 -5.1 3.1 0 3 0 -0.3 4.8 -0.3 4.7 -2.7 0.3 -2.8 0.3 0 -5z"/>
  <path d="M342 208.1 l0 -5.1 3.1 0 3 0 -0.3 4.8 -0.3 4.7 -2.7 0.3 -2.8 0.3 0 -5z"/>
  <path d="M352 208.1 l0 -5.1 3.1 0 3 0 -0.3 4.8 -0.3 4.7 -2.7 0.3 -2.8 0.3 0 -5z"/>
  <path d="M362 208.1 l0 -5.1 3.1 0 3 0 -0.3 4.8 -0.3 4.7 -2.7 0.3 -2.8 0.3 0 -5z"/>
  <path d="M372 208.1 l0 -5.1 3.1 0 3 0 -0.3 4.8 -0.3 4.7 -2.7 0.3 -2.8 0.3 0 -5z"/>
  <path d="M382 208.1 l0 -5.1 3.1 0 3 0 -0.3 4.8 -0.3 4.7 -2.7 0.3 -2.8 0.3 0 -5z"/>
  <path d="M392 208.1 l0 -5.1 3.1 0 3 0 -0.3 4.8 -0.3 4.7 -2.7 0.3 -2.8 0.3 0 -5z"/>
  <path d="M402 208.1 l0 -5.1 3.1 0 3 0 -0.3 4.8 -0.3 4.7 -2.7 0.3 -2.8 0.3 0 -5z"/>
  <path d="M412 208.1 l0 -5.1 3.1 0 3 0 -0.3 4.8 -0.3 4.7 -2.7 0.3 -2.8 0.3 0 -5z"/>
  <path d="M422 208.1 l0 -5.1 3.1 0 3 0 -0.3 4.8 -0.3 4.7 -2.7 0.3 -2.8 0.3 0 -5z"/>
  <path d="M432 208.1 l0 -5.1 3.1 0 3 0 -0.3 4.8 -0.3 4.7 -2.7 0.3 -2.8 0.3 0 -5z"/>
  <path d="M442 208 l0 -5 3 0 3 0 0 5 0 5 -3 0 -3 0 0 -5z"/>
  <path d="M452 208.1 l0 -5.1 3.1 0 3 0 -0.3 4.8 -0.3 4.7 -2.7 0.3 -2.8 0.3 0 -5z"/>
  <path d="M462 208.1 l0 -5.1 3.1 0 3 0 -0.3 4.8 -0.3 4.7 -2.7 0.3 -2.8 0.3 0 -5z"/>
  <path d="M472 208.1 l0 -5.1 3.1 0 3 0 -0.3 4.8 -0.3 4.7 -2.7 0.3 -2.8 0.3 0 -5z"/>
  <path d="M482 208.1 l0 -5.1 3.1 0 3 0 -0.3 4.8 -0.3 4.7 -2.7 0.3 -2.8 0.3 0 -5z"/>
  <path d="M492 208.1 l0 -5.1 3.1 0 3 0 -0.3 4.8 -0.3 4.7 -2.7 0.3 -2.8 0.3 0 -5z"/>
  <path d="M502 208.1 l0 -5.1 3.1 0 3 0 -0.3 4.8 -0.3 4.7 -2.7 0.3 -2.8 0.3 0 -5z"/>
  <path d="M512 208.1 l0 -5.1 3.1 0 3 0 -0.3 4.8 -0.3 4.7 -2.7 0.3 -2.8 0.3 0 -5z"/>
  <path d="M522 208.1 l0 -5.1 3.1 0 3 0 -0.3 4.8 -0.3 4.7 -2.7 0.3 -2.8 0.3 0 -5z"/>
  <path d="M532 208.1 l0 -5.1 3.1 0 3 0 -0.3 4.8 -0.3 4.7 -2.7 0.3 -2.8 0.3 0 -5z"/>
  <path d="M542 208 l0 -5 3 0 3 0 0 5 0 5 -3 0 -3 0 0 -5z"/>
  <path d="M552 208.1 l0 -5.1 3.1 0 3 0 -0.3 4.8 -0.3 4.7 -2.7 0.3 -2.8 0.3 0 -5z"/>
  <path d="M562 208 l0 -5 3 0 3 0 0 5 0 5 -3 0 -3 0 0 -5z"/>
  <path d="M572 208.1 l0 -5.1 3.1 0 3 0 -0.3 4.8 -0.3 4.7 -2.7 0.3 -2.8 0.3 0 -5z"/>
  <path d="M582 208.1 l0 -5.1 3.1 0 3 0 -0.3 4.8 -0.3 4.7 -2.7 0.3 -2.8 0.3 0 -5z"/>
  <path d="M592 208.1 l0 -5.1 3.1 0 3 0 -0.3 4.8 -0.3 4.7 -2.7 0.3 -2.8 0.3 0 -5z"/>
  <path d="M602 208.1 l0 -5.1 3.1 0 3 0 -0.3 4.8 -0.3 4.7 -2.7 0.3 -2.8 0.3 0 -5z"/>
  <path d="M612 208.1 l0 -5.1 3.1 0 3 0 -0.3 4.8 -0.3 4.7 -2.7 0.3 -2.8 0.3 0 -5z"/>
  <path d="M622 208.1 l0 -5.1 3.1 0 3 0 -0.3 4.8 -0.3 4.7 -2.7 0.3 -2.8 0.3 0 -5z"/>
  <path d="M632 208.1 l0 -5.1 3.1 0 3 0 -0.3 4.8 -0.3 4.7 -2.7 0.3 -2.8 0.3 0 -5z"/>
  <path d="M642 208.1 l0 -5.1 3.1 0 3 0 -0.3 4.8 -0.3 4.7 -2.7 0.3 -2.8 0.3 0 -5z"/>
  <path d="M652 208.1 l0 -5.1 3.1 0 3 0 -0.3 4.8 -0.3 4.7 -2.7 0.3 -2.8 0.3 0 -5z"/>
  <path d="M662 208.1 l0 -5.1 3.1 0 3 0 -0.3 4.8 -0.3 4.7 -2.7 0.3 -2.8 0.3 0 -5z"/>
  <path d="M672 208.1 l0 -5.1 3.1 0 3 0 -0.3 4.8 -0.3 4.7 -2.7 0.3 -2.8 0.3 0 -5z"/>
  <path d="M682 208.1 l0 -5.1 3.1 0 3 0 -0.3 4.8 -0.3 4.7 -2.7 0.3 -2.8 0.3 0 -5z"/>
  <path d="M692 208.1 l0 -5.1 3.1 0 3 0 -0.3 4.8 -0.3 4.7 -2.7 0.3 -2.8 0.3 0 -5z"/>
  <path d="M702 208.1 l0 -5.1 3.1 0 3 0 -0.3 4.8 -0.3 4.7 -2.7 0.3 -2.8 0.3 0 -5z"/>
  <path d="M712 208.1 l0 -5.1 3.1 0 3 0 -0.3 4.8 -0.3 4.7 -2.7 0.3 -2.8 0.3 0 -5z"/>
  <path d="M722 208.1 l0 -5.1 3.1 0 3 0 -0.3 4.8 -0.3 4.7 -2.7 0.3 -2.8 0.3 0 -5z"/>
  <path d="M732 208.1 l0 -5.1 3.1 0 3 0 -0.3 4.8 -0.3 4.7 -2.7 0.3 -2.8 0.3 0 -5z"/>
  <path d="M742.7 212.4 l-0.7 -0.7 0 -4.4 0 -4.3 3.1 0 3 0 -0.3 4.8 -0.3 4.7 -2 0.3 -2.1 0.3 -0.7 -0.7z"/>
  <path d="M752 208.1 l0 -5.1 3.1 0 3 0 -0.3 4.8 -0.3 4.7 -2.7 0.3 -2.8 0.3 0 -5z"/>
  <path d="M762.7 212.4 l-0.7 -0.7 0 -4.4 0 -4.3 3.1 0 3 0 -0.3 4.8 -0.3 4.7 -2 0.3 -2.1 0.3 -0.7 -0.7z"/>
  <path d="M772 208.1 l0 -5.1 3.1 0 3 0 -0.3 4.8 -0.3 4.7 -2.7 0.3 -2.8 0.3 0 -5z"/>
  <path d="M782.7 212.4 l-0.7 -0.7 0 -4.4 0 -4.3 3.1 0 3 0 -0.3 4.8 -0.3 4.7 -2 0.3 -2.1 0.3 -0.7 -0.7z"/>
  <path d="M792 208.1 l0 -5.1 3.1 0 3 0 -0.3 4.8 -0.3 4.7 -2.7 0.3 -2.8 0.3 0 -5z"/>
  <path d="M32 180 l0 -5 3 0 3 0 0 5 0 5 -3 0 -3 0 0 -5z"/>
  <path d="M42 180 l0 -5 3 0 3 0 0 5 0 5 -3 0 -3 0 0 -5z"/>
  <path d="M52 180 l0 -5 3 0 3 0 0 5 0 5 -3 0 -3 0 0 -5z"/>
  <path d="M62 180 l0 -5 3 0 3 0 0 5 0 5 -3 0 -3 0 0 -5z"/>
  <path d="M72 180 l0 -5 3 0 3 0 0 5 0 5 -3 0 -3 0 0 -5z"/>
  <path d="M252 180 l0 -5 3 0 3 0 0 5 0 5 -3 0 -3 0 0 -5z"/>
  <path d="M262 180 l0 -5 3 0 3 0 0 5 0 5 -3 0 -3 0 0 -5z"/>
  <path d="M272 180 l0 -5 3 0 3 0 0 5 0 5 -3 0 -3 0 0 -5z"/>
  <path d="M282 180 l0 -5 3 0 3 0 0 5 0 5 -3 0 -3 0 0 -5z"/>
  <path d="M292 180 l0 -5 3 0 3 0 0 5 0 5 -3 0 -3 0 0 -5z"/>
  <path d="M302 180 l0 -5 3 0 3 0 0 5 0 5 -3 0 -3 0 0 -5z"/>
  <path d="M312 180 l0 -5 3 0 3 0 0 5 0 5 -3 0 -3 0 0 -5z"/>
  <path d="M322 180 l0 -5 3 0 3 0 0 5 0 5 -3 0 -3 0 0 -5z"/>
  <path d="M332 180 l0 -5 3 0 3 0 0 5 0 5 -3 0 -3 0 0 -5z"/>
  <path d="M342 180 l0 -5 3 0 3 0 0 5 0 5 -3 0 -3 0 0 -5z"/>
  <path d="M352 180 l0 -5 3 0 3 0 0 5 0 5 -3 0 -3 0 0 -5z"/>
  <path d="M362 180 l0 -5 3 0 3 0 0 5 0 5 -3 0 -3 0 0 -5z"/>
  <path d="M372 180 l0 -5 3 0 3 0 0 5 0 5 -3 0 -3 0 0 -5z"/>
  <path d="M382 180 l0 -5 3 0 3 0 0 5 0 5 -3 0 -3 0 0 -5z"/>
  <path d="M392 180 l0 -5 3 0 3 0 0 5 0 5 -3 0 -3 0 0 -5z"/>
  <path d="M402 180 l0 -5 3 0 3 0 0 5 0 5 -3 0 -3 0 0 -5z"/>
  <path d="M412 180 l0 -5 3 0 3 0 0 5 0 5 -3 0 -3 0 0 -5z"/>
  <path d="M422 180 l0 -5 3 0 3 0 0 5 0 5 -3 0 -3 0 0 -5z"/>
  <path d="M42 148 l0 -5 3 0 3 0 0 5 0 5 -3 0 -3 0 0 -5z"/>
  <path d="M52 148.1 l0 -5.1 3.1 0 3 0 -0.3 4.8 -0.3 4.7 -2.7 0.3 -2.8 0.3 0 -5z"/>
  <path d="M62 148 l0 -5 3 0 3 0 0 5 0 5 -3 0 -3 0 0 -5z"/>
  <path d="M72 148.1 l0 -5.1 3.1 0 3 0 -0.3 4.8 -0.3 4.7 -2.7 0.3 -2.8 0.3 0 -5z"/>
  <path d="M82 148 l0 -5 3 0 3 0 0 5 0 5 -3 0 -3 0 0 -5z"/>
  <path d="M92 148.1 l0 -5.1 3.1 0 3 0 -0.3 4.8 -0.3 4.7 -2.7 0.3 -2.8 0.3 0 -5z"/>
  <path d="M102 148 l0 -5 3 0 3 0 0 5 0 5 -3 0 -3 0 0 -5z"/>
  <path d="M252 148.1 l0 -5.1 3.1 0 3 0 -0.3 4.8 -0.3 4.7 -2.7 0.3 -2.8 0.3 0 -5z"/>
  <path d="M262 148 l0 -5 3 0 3 0 0 5 0 5 -3 0 -3 0 0 -5z"/>
  <path d="M272 148.1 l0 -5.1 3.1 0 3 0 -0.3 4.8 -0.3 4.7 -2.7 0.3 -2.8 0.3 0 -5z"/>
  <path d="M282 148 l0 -5 3 0 3 0 0 5 0 5 -3 0 -3 0 0 -5z"/>
  <path d="M292 148.1 l0 -5.1 3.1 0 3 0 -0.3 4.8 -0.3 4.7 -2.7 0.3 -2.8 0.3 0 -5z"/>
  <path d="M302 148 l0 -5 3 0 3 0 0 5 0 5 -3 0 -3 0 0 -5z"/>
  <path d="M312 148.1 l0 -5.1 3.1 0 3 0 -0.3 4.8 -0.3 4.7 -2.7 0.3 -2.8 0.3 0 -5z"/>
  <path d="M322 148 l0 -5 3 0 3 0 0 5 0 5 -3 0 -3 0 0 -5z"/>
  <path d="M332 148 l0 -5 3 0 3 0 0 5 0 5 -3 0 -3 0 0 -5z"/>
  <path d="M342 148 l0 -5 3 0 3 0 0 5 0 5 -3 0 -3 0 0 -5z"/>
  <path d="M352 148.1 l0 -5.1 3.1 0 3 0 -0.3 4.8 -0.3 4.7 -2.7 0.3 -2.8 0.3 0 -5z"/>
  <path d="M362 148 l0 -5 3 0 3 0 0 5 0 5 -3 0 -3 0 0 -5z"/>
  <path d="M372 148.1 l0 -5.1 3.1 0 3 0 -0.3 4.8 -0.3 4.7 -2.7 0.3 -2.8 0.3 0 -5z"/>
  <path d="M382 148 l0 -5 3 0 3 0 0 5 0 5 -3 0 -3 0 0 -5z"/>
  <path d="M392 148.1 l0 -5.1 3.1 0 3 0 -0.3 4.8 -0.3 4.7 -2.7 0.3 -2.8 0.3 0 -5z"/>
  <path d="M402 148 l0 -5 3 0 3 0 0 5 0 5 -3 0 -3 0 0 -5z"/>
  <path d="M62 116.1 l0 -5.1 3.1 0 3 0 -0.3 4.8 -0.3 4.7 -2.7 0.3 -2.8 0.3 0 -5z"/>
  <path d="M72 116.1 l0 -5.1 3.1 0 3 0 -0.3 4.8 -0.3 4.7 -2.7 0.3 -2.8 0.3 0 -5z"/>
  <path d="M82 116.1 l0 -5.1 3.1 0 3 0 -0.3 4.8 -0.3 4.7 -2.7 0.3 -2.8 0.3 0 -5z"/>
  <path d="M92 116.1 l0 -5.1 3.1 0 3 0 -0.3 4.8 -0.3 4.7 -2.7 0.3 -2.8 0.3 0 -5z"/>
  <path d="M102 116.1 l0 -5.1 3.1 0 3 0 -0.3 4.8 -0.3 4.7 -2.7 0.3 -2.8 0.3 0 -5z"/>
  <path d="M112 116.1 l0 -5.1 3.1 0 3 0 -0.3 4.8 -0.3 4.7 -2.7 0.3 -2.8 0.3 0 -5z"/>
  <path d="M122 116.1 l0 -5.1 3.1 0 3 0 -0.3 4.8 -0.3 4.7 -2.7 0.3 -2.8 0.3 0 -5z"/>
  <path d="M252 116.1 l0 -5.1 3.1 0 3 0 -0.3 4.8 -0.3 4.7 -2.7 0.3 -2.8 0.3 0 -5z"/>
  <path d="M262 116.1 l0 -5.1 3.1 0 3 0 -0.3 4.8 -0.3 4.7 -2.7 0.3 -2.8 0.3 0 -5z"/>
  <path d="M272 116.1 l0 -5.1 3.1 0 3 0 -0.3 4.8 -0.3 4.7 -2.7 0.3 -2.8 0.3 0 -5z"/>
  <path d="M282 116 l0 -5 3 0 3 0 0 5 0 5 -3 0 -3 0 0 -5z"/>
  <path d="M292 116.1 l0 -5.1 3.1 0 3 0 -0.3 4.8 -0.3 4.7 -2.7 0.3 -2.8 0.3 0 -5z"/>
  <path d="M302 116.1 l0 -5.1 3.1 0 3 0 -0.3 4.8 -0.3 4.7 -2.7 0.3 -2.8 0.3 0 -5z"/>
  <path d="M312 116.1 l0 -5.1 3.1 0 3 0 -0.3 4.8 -0.3 4.7 -2.7 0.3 -2.8 0.3 0 -5z"/>
  <path d="M322 116.1 l0 -5.1 3.1 0 3 0 -0.3 4.8 -0.3 4.7 -2.7 0.3 -2.8 0.3 0 -5z"/>
  <path d="M332 116.1 l0 -5.1 3.1 0 3 0 -0.3 4.8 -0.3 4.7 -2.7 0.3 -2.8 0.3 0 -5z"/>
  <path d="M342 116 l0 -5 3 0 3 0 0 5 0 5 -3 0 -3 0 0 -5z"/>
  <path d="M352 116.1 l0 -5.1 3.1 0 3 0 -0.3 4.8 -0.3 4.7 -2.7 0.3 -2.8 0.3 0 -5z"/>
  <path d="M362 116.1 l0 -5.1 3.1 0 3 0 -0.3 4.8 -0.3 4.7 -2.7 0.3 -2.8 0.3 0 -5z"/>
  <path d="M372 116.1 l0 -5.1 3.1 0 3 0 -0.3 4.8 -0.3 4.7 -2.7 0.3 -2.8 0.3 0 -5z"/>
  <path d="M382 116.1 l0 -5.1 3.1 0 3 0 -0.3 4.8 -0.3 4.7 -2.7 0.3 -2.8 0.3 0 -5z"/>
  <path d="M392 116.1 l0 -5.1 3.1 0 3 0 -0.3 4.8 -0.3 4.7 -2.7 0.3 -2.8 0.3 0 -5z"/>
 </g>
</svg>
